<svg id="OBJECTS" xmlns="http://www.w3.org/2000/svg" xmlns:xlink="http://www.w3.org/1999/xlink" viewBox="0 0 242.67 191.63"><defs><style>.cls-1{fill:#f0f0f0;}.cls-2{fill:url(#linear-gradient);}.cls-3{fill:#fff;}.cls-4{fill:#c7c7c7;}.cls-5{fill:#482c3b;}.cls-6{fill:#a6aeba;}.cls-7{fill:#d2dceb;}.cls-8{fill:#d0dfe1;}.cls-9{fill:#b0bebf;}.cls-10{fill:#ffe0bc;}.cls-11{fill:#0b5a70;}.cls-12{fill:#5dcfff;}.cls-13{fill:#8b4200;}.cls-14,.cls-22,.cls-26{fill:none;stroke-miterlimit:10;}.cls-14{stroke:#482c3b;}.cls-14,.cls-22{stroke-width:0.25px;}.cls-15{fill:#133a50;}.cls-16{fill:#f7d4b2;}.cls-17{fill:#ffd04d;}.cls-18{fill:#b56537;}.cls-19{fill:#e4ddd7;}.cls-20{fill:#364469;}.cls-21{fill:#e9f2f4;}.cls-22{stroke:#aebfde;}.cls-23{fill:#97a3cc;}.cls-24{fill:url(#linear-gradient-2);}.cls-25{fill:#dbdbdb;}.cls-26{stroke:#e9f2f4;}.cls-27{fill:#00a0b4;}</style><linearGradient id="linear-gradient" x1="-831.31" y1="1079.19" x2="-586.25" y2="1079.19" gradientTransform="matrix(-0.95, -0.19, -0.19, 0.94, -346.58, -1068.9)" gradientUnits="userSpaceOnUse"><stop offset="0" stop-color="#00bfc2"/><stop offset="0.49" stop-color="#00bdc4"/><stop offset="0.67" stop-color="#00b6c9"/><stop offset="0.79" stop-color="#00abd4"/><stop offset="0.89" stop-color="#009ae2"/><stop offset="0.98" stop-color="#0084f5"/><stop offset="1" stop-color="#007dfb"/></linearGradient><linearGradient id="linear-gradient-2" x1="-694.77" y1="822.65" x2="-670.47" y2="822.4" gradientTransform="matrix(-0.92, -0.32, -0.45, 0.93, -101.65, -916.76)" gradientUnits="userSpaceOnUse"><stop offset="0" stop-color="#eef4fb"/><stop offset="0.31" stop-color="#e3edf8"/><stop offset="1" stop-color="#cfe1f3"/></linearGradient></defs><title>details-2-office-team-work</title><path class="cls-1" d="M83.55,57.68c46-16.55,80.67-88.82,134.93-30.61s9.24,146.44-56,156.87S21.59,165.94,8,119.53C-15.17,40.22,52.68,68.79,83.55,57.68Z" transform="translate(0 0)"/><path class="cls-2" d="M80.27,52.91c46-16.56,80.67-88.83,134.93-30.61s9.24,146.43-56,156.87-140.85-18-154.42-64.42C-18.45,35.44,49.39,64,80.27,52.91Z" transform="translate(0 0)"/><path class="cls-3" d="M149.32,27.31,148.86,26l-.47,1.34a4.65,4.65,0,0,1-2.59,2.63h0a4.67,4.67,0,0,1,2.59,2.64l.47,1.33.46-1.33a4.67,4.67,0,0,1,2.59-2.64h0A4.65,4.65,0,0,1,149.32,27.31Z" transform="translate(0 0)"/><path class="cls-3" d="M97.22,124.6l-.47-1.34-.46,1.34a4.7,4.7,0,0,1-2.59,2.64h0a4.65,4.65,0,0,1,2.59,2.63l.46,1.34.47-1.34a4.67,4.67,0,0,1,2.59-2.64h0A4.62,4.62,0,0,1,97.22,124.6Z" transform="translate(0 0)"/><path class="cls-3" d="M223.44,62.56l-.31-.88-.31.88a3.06,3.06,0,0,1-1.7,1.74h0A3.11,3.11,0,0,1,222.83,66l.31.88.3-.88a3.11,3.11,0,0,1,1.71-1.74h0A3.11,3.11,0,0,1,223.44,62.56Z" transform="translate(0 0)"/><path class="cls-3" d="M76.87,72.27l-.31-.88-.3.88A3.11,3.11,0,0,1,74.55,74h0a3.11,3.11,0,0,1,1.71,1.74l.3.88.31-.88A3,3,0,0,1,78.58,74h0A3,3,0,0,1,76.87,72.27Z" transform="translate(0 0)"/><polygon class="cls-4" points="55.89 191.27 57.61 191.27 71.61 123.01 68.06 123.01 55.89 191.27"/><polygon class="cls-4" points="188.02 191.27 186.3 191.27 172.3 123.01 175.84 123.01 188.02 191.27"/><path class="cls-5" d="M53.63,81.92a4.78,4.78,0,0,0-1.11,2.21,3.44,3.44,0,0,1,1.14-1.55c.71-.45,1.65-.39,2.36-.83a3.77,3.77,0,0,0,1.3-1.9,5.33,5.33,0,0,1-1.81,1.06A3.58,3.58,0,0,0,53.63,81.92Z" transform="translate(0 0)"/><rect class="cls-6" x="59.64" y="158.36" width="2.61" height="25.26"/><rect class="cls-7" x="58.85" y="154.68" width="4.19" height="3.68"/><rect class="cls-7" x="59.36" y="173.9" width="3.17" height="7.88"/><rect class="cls-7" x="58.85" y="181.78" width="4.19" height="3.68"/><rect class="cls-6" x="55.87" y="147.71" width="10.16" height="6.96"/><rect class="cls-6" x="47.28" y="145.63" width="28.34" height="5.21" rx="0.54"/><polygon class="cls-6" points="50.85 188.97 58.85 185.01 58.85 182.24 49.8 188.31 50.85 188.97"/><circle class="cls-6" cx="49.8" cy="189.75" r="1.87"/><circle class="cls-6" cx="60.95" cy="189.75" r="1.87"/><polygon class="cls-6" points="71.04 188.97 63.04 185.01 63.04 182.24 72.09 188.31 71.04 188.97"/><circle class="cls-6" cx="72.09" cy="189.75" r="1.87"/><rect class="cls-6" x="60.44" y="183.62" width="1.01" height="6.11"/><path class="cls-8" d="M42.57,148.49a2,2,0,0,1-2-1.51c-.68-2.82-1.92-8.1-2-21.27a126.53,126.53,0,0,0-4.09-30.24A3,3,0,0,1,36,92.19h0a4.05,4.05,0,0,1,2-.55H63.26S73.65,110.22,75,116.58s3.26,30.79,3.26,30.79Z" transform="translate(0 0)"/><path class="cls-9" d="M43.39,148.54S41,143.91,41,125.71c0-15-3-27.33-3.87-32.1a1.68,1.68,0,0,1,1.36-1.94,1.45,1.45,0,0,1,.3,0H65.64S76,110.21,77.39,116.58s3.26,30.79,3.26,30.79Z" transform="translate(0 0)"/><path class="cls-8" d="M67.9,148.54H42.32a1.31,1.31,0,0,1-1.3-1.31h0V143H67.9v5.54Z" transform="translate(0 0)"/><path class="cls-9" d="M85.07,148.54H47.28v-3.9A1.64,1.64,0,0,1,48.92,143H85.07a1.64,1.64,0,0,1,1.64,1.64h0v2.26a1.64,1.64,0,0,1-1.64,1.64Z" transform="translate(0 0)"/><path class="cls-10" d="M51.08,85.25S55,84,55.38,82.31c.32-1.38.83-5.67.83-5.67H63a30.65,30.65,0,0,0,0,5.07c.65,3.09,4.52,4.1,4.52,4.1l.55,9.65-10,8.41-9.69-9.73Z" transform="translate(0 0)"/><path id="_Path_" data-name=" Path " class="cls-10" d="M66.66,66.13c1.72,2.29,1.37,2.61,1.14,5.77a25.77,25.77,0,0,1-1.36,6.5c-.46,1.19-2.89,6.31-7.21,4.44a13.31,13.31,0,0,1-5.88-5.33,17,17,0,0,1-.92-5.74c0-2.1-.06-4.82,0-6.39C52.72,59.85,63.52,61.94,66.66,66.13Z" transform="translate(0 0)"/><path class="cls-11" d="M77.91,131.12c3.72-.81,5.79.39,8,3.06s1.34,9.14,0,14.49-6.46,41-6.46,41H75.68s-1-14-1.64-24.29,1.62-24.93,1.62-24.93l-14.47-9.3S74.57,131.84,77.91,131.12Z" transform="translate(0 0)"/><path class="cls-11" d="M77.73,126c2.84,2.66,11.2,7.13,9.54,12.65l-11.2,4.75s-11.38-4.13-14.88-12.24L57.71,123l7.5-3Z" transform="translate(0 0)"/><path class="cls-11" d="M69.55,133.08c2.06,1.49,7.63,3.94,6.52,10.27-.57,3.23-9.68,22.74-14.65,30.94-2.54,4.18-7.05,12.92-7.05,12.92l-4.24,1s3.27-10.62,5.49-20.42,8.72-21.51,8.72-21.51A67.22,67.22,0,0,0,56,141.5c-3.56-1.56-5.48-2.2-.13-7.32S65.54,130.18,69.55,133.08Z" transform="translate(0 0)"/><path class="cls-12" d="M77.73,102.91a26.78,26.78,0,0,0,2.2,6.4c.89,1.55,19.26,8.32,19.26,8.32H88.46s-10.21-1.34-13.13-5.25a71.67,71.67,0,0,1-5.61-9.47Z" transform="translate(0 0)"/><path class="cls-11" d="M71.15,87.15c1.9.85,3.66,5.65,5.06,9.74a25.57,25.57,0,0,1,1.52,6s-4.91,2.81-7.51,2.1c0,0-2.47-8.88-.77-13.37Z" transform="translate(0 0)"/><path class="cls-11" d="M61.68,126.27c5.35-.21,10.7-.34,16.05-.32-2.6-1.68-4.9-2.86-5.4-3.36-1.11-1.11-.73-11,.09-14.12s.77-6.66.17-8.25-1.44-13.07-1.44-13.07l-3.61-1.34s1.11,8.33-7.64,8.33-8.82-8.89-8.82-8.89l-5.6,1.24s-.42,10.84-.21,15.76,2.55,13.43,3.22,17.9c.52,3.46-.45,5.59-1.11,8.14A35.69,35.69,0,0,1,61.68,126.27Z" transform="translate(0 0)"/><path class="cls-13" d="M54.63,186.5c-1.2-.24-1.63.24-2.71,1a4.51,4.51,0,0,1-2.28.72v3.25H58Z" transform="translate(0 0)"/><path class="cls-13" d="M80.2,187.1s-.12,1.13-1.93,1.63a3.05,3.05,0,0,1-3-1l-.4,3.68,14.26.08Z" transform="translate(0 0)"/><path class="cls-12" d="M80.45,116.79c-1.6-.19-3.14-1.69-9.34-1.76a97.75,97.75,0,0,1-10.47-2,22.17,22.17,0,0,1-5.91-2.55S52.45,102,51.59,96.59c-2.52-.28-5-.6-7.54-1-.08,6.71,4.67,18.64,6.25,19.83,3.08,2.32,10.33,2.2,12.06,2.24,4,.07,21.2.53,21.2.53S84.88,117.32,80.45,116.79Z" transform="translate(0 0)"/><path class="cls-11" d="M53.61,105.08s-2.29-13.41-3-14.82c-3.42-7.3-8.12-3.41-7.43,2.23.3,2.4.48,8.61,1.7,14.48A19.18,19.18,0,0,0,53.61,105.08Z" transform="translate(0 0)"/><polygon class="cls-6" points="76.79 118.17 83.55 118.17 90.31 94.53 85.17 94.53 76.79 118.17"/><polygon class="cls-7" points="78.73 118.17 105.11 118.17 111.87 94.53 85.49 94.53 78.73 118.17"/><rect class="cls-7" x="74.85" y="117.64" width="30.26" height="1.76"/><rect class="cls-6" x="59.72" y="117.64" width="15.13" height="1.76"/><ellipse class="cls-6" cx="95.81" cy="108.59" rx="3.56" ry="2.8" transform="translate(-41.48 154.67) rotate(-67.13)"/><path class="cls-11" d="M47.39,128.29c-1,4.8,1.36,15.27,17,18l8.9,3.6a11.75,11.75,0,0,0,2.43-9.48c-1.12-5.5-7.36-7.59-11.48-14.24,0,0-6.46-2.7-10.61-1.26A18.31,18.31,0,0,0,47.39,128.29Z" transform="translate(0 0)"/><path class="cls-5" d="M68,69.4s-1.88.07-4.18-3.4c0,0,.25,1.57-2,3.69s-4.25,1.55-4.59,2.57a8,8,0,0,0-.37,1.94,1,1,0,0,1-.74-.55,4.9,4.9,0,0,0-.77-1.51c-1-.68-2.78.23-2.22,2.22a4.27,4.27,0,0,0,1.7,2.07c0,3.4,1.37,4.45,1.37,4.45s-2.3,1.05-3.48.57c-1.68-.69-2.11-1.75-2-3.65a4.57,4.57,0,0,1-2.25-1.17c-2.35-2.33.36-9,1.44-9.79,0,0-2.56-3.64.66-6.08s4.54,1.52,4.54,1.52c1.09-.82,5.55-1.1,7.82-.25C69.27,64.42,68,69.4,68,69.4Z" transform="translate(0 0)"/><path class="cls-14" d="M63.67,66c.2,1.3,0,4.32-3.47,6.68" transform="translate(0 0)"/><rect class="cls-6" x="206.19" y="158.36" width="2.61" height="25.26"/><rect class="cls-7" x="205.4" y="154.68" width="4.19" height="3.68"/><rect class="cls-7" x="205.91" y="173.9" width="3.16" height="7.88"/><rect class="cls-7" x="205.4" y="181.78" width="4.19" height="3.68"/><rect class="cls-6" x="202.42" y="147.71" width="10.16" height="6.96"/><rect class="cls-6" x="192.82" y="145.63" width="28.34" height="5.21" rx="0.54"/><polygon class="cls-6" points="217.59 188.97 209.59 185.01 209.59 182.24 218.64 188.31 217.59 188.97"/><circle class="cls-6" cx="218.64" cy="189.75" r="1.87"/><circle class="cls-6" cx="207.5" cy="189.75" r="1.87"/><polygon class="cls-6" points="197.4 188.97 205.4 185.01 205.4 182.24 196.35 188.31 197.4 188.97"/><circle class="cls-6" cx="196.35" cy="189.75" r="1.87"/><rect class="cls-6" x="206.99" y="183.62" width="1.01" height="6.11"/><path class="cls-8" d="M225.87,148.49a2,2,0,0,0,2-1.51c.68-2.82,1.93-8.1,2-21.27,0-14.53,7.64-25.59,8.69-30.24a3,3,0,0,0-1.45-3.28h0a4.05,4.05,0,0,0-2-.55H205.18s-10.38,18.58-11.75,24.94-3.26,30.79-3.26,30.79Z" transform="translate(0 0)"/><path class="cls-9" d="M225.05,148.54s2.36-4.63,2.4-22.83c0-15,7.61-27.33,8.47-32.1a1.67,1.67,0,0,0-1.35-1.94,1.55,1.55,0,0,0-.31,0H202.8s-10.38,18.57-11.75,24.94-3.26,30.79-3.26,30.79Z" transform="translate(0 0)"/><path class="cls-8" d="M192.28,143h35.15v4.23a1.31,1.31,0,0,1-1.31,1.31H192.28V143Z" transform="translate(0 0)"/><path class="cls-9" d="M183.38,143H195a1.63,1.63,0,0,1,1.64,1.64h0v3.9h-13.3a1.65,1.65,0,0,1-1.63-1.64v-2.26A1.64,1.64,0,0,1,183.38,143Z" transform="translate(0 0)"/><path class="cls-15" d="M198.51,86.18c-2.44,2.42-2.6,14.59-5.06,20.91,0,0-16.78,6.56-24.42,8.48l2.65,2.8s22.73-5.46,25.61-7.38c4.41-2.93,7-14.79,7.39-20.72S201.05,83.65,198.51,86.18Z" transform="translate(0 0)"/><path class="cls-16" d="M170.89,116l-1.86-.44s-3.84-.35-5.07-.52-2.7,1.23-4.37,1.75a15.86,15.86,0,0,0-3.3,1.57h1.34l2.73.45,2.47-.45a23.77,23.77,0,0,1,4.62,0,19.94,19.94,0,0,0,4.23,0Z" transform="translate(0 0)"/><path class="cls-17" d="M187.49,128.28c-5.2,1.72-11.59,4.49-13.46,6.23s-5.55,4.21-2.58,13.76c1.9,6.11,10.17,37,10.17,37l4.2-.74s-1.49-17.93-3-31.34c-.72-6.5-1-8.31-1-8.31l5.62-2.29c7.14-2.93,4.69-15.18,4.69-15.18Z" transform="translate(0 0)"/><path class="cls-17" d="M176.29,132.64c-1.87,1.74-3.19,1.16-6,10.77C168.5,149.54,162,180.5,162,180.5l3.9,1.7c5.29-14.8,5.28-14.78,11.45-26.79a53.53,53.53,0,0,0,4.25-11.57l11.41-.68c7.13-2.93,4.68-13.34,4.68-13.34S178.16,130.9,176.29,132.64Z" transform="translate(0 0)"/><path class="cls-17" d="M219.06,123.44c0,5,3.62,10.52-.57,16.2-3.8,5.14-26,3.51-26,3.51s3.13-5.42.16-9.52c-1.9-2.62-6.28-5-6.28-5l12.4-4,10-7.74Z" transform="translate(0 0)"/><path class="cls-18" d="M206.62,85.08c-.67,2.28-5.43,2.23-8.94-2s-6.06-11.51-2.56-16.63,8.2,4.8,9.79,10.08A36.88,36.88,0,0,1,206.62,85.08Z" transform="translate(0 0)"/><path class="cls-10" d="M195.55,66.34c-.94,1.12,0,5.38.12,6,.32,1.22-.3,2.91.05,3.19a2.36,2.36,0,0,0,1.14.2c.06,0,1.71,3.25,2,3.92.44,1,2.84-.78,3.56,0,.52.56.55,1.59.73,2.86l-1.4,5.66L213.18,86A57.94,57.94,0,0,1,209,78.73c-.85-2.27.22-4.75-.07-7.8s-1.64-7-6-7.38A8.53,8.53,0,0,0,195.55,66.34Z" transform="translate(0 0)"/><path class="cls-19" d="M199.16,123.93a23.94,23.94,0,0,1,7.65,0c4.76.64,11.8-.7,11.8-.7s-2.89-14.88-2.71-21.63.71-14,.71-14L204,85.44s-3.07,1.1-4.8,6S197.7,117.74,199.16,123.93Z" transform="translate(0 0)"/><path class="cls-15" d="M203.16,82.51c-.94.93-4,2.13-4,3.46s-2.4,12.79-2.27,15.19,1,11.51.48,14.3a69.56,69.56,0,0,0-.53,9l2.32-.53s-.67-15.84,0-21.7S204,85.58,204,85.58l-1.56-.53Z" transform="translate(0 0)"/><path class="cls-15" d="M207.76,85.57l-3.8-.13s-1.28,5.86-1.28,17.15a181.21,181.21,0,0,0,1.95,22.31,23.44,23.44,0,0,0,6.94,1.27,16.5,16.5,0,0,0,7-1.33,147.83,147.83,0,0,1,0-18.35c.67-9.06,3.09-11.12,2.62-17-.77-9.84-9.68-6.4-9.68-6.4Z" transform="translate(0 0)"/><path class="cls-17" d="M204,85.44s6.13-2.93,7.06-4.8a6.22,6.22,0,0,1,.54,2.4c-.14.8-6,6.39-6,6.39Z" transform="translate(0 0)"/><path class="cls-18" d="M209,86.14c1.5-7.56-2.52-9.79-6.92-12.48a22.83,22.83,0,0,1-7-7.25s1.7-5.53,6.67-6.67,11.31,2,12.92,9.8c1.13,5.55,2.62,7.5,6.38,10.21,4.54,3.27,5.9,11.6.6,15.62-4.9,3.71-2.06-5.11-3.88-10.06-.31-.84-4.12,3.42-6.25,4.13S208.79,87.36,209,86.14Z" transform="translate(0 0)"/><path class="cls-17" d="M203.16,82.51a3.28,3.28,0,0,0,.8,2.93l-2.27,3.2s-.66-2.53,0-3.6S203.16,82.51,203.16,82.51Z" transform="translate(0 0)"/><path class="cls-15" d="M181.33,183.07s.12,1.13,1.93,1.64a3.08,3.08,0,0,0,3-1l.4,3.68-5.76,4.06h-4.79l2.59-2.87Z" transform="translate(0 0)"/><path class="cls-15" d="M162.13,178a2,2,0,0,0,.71,2.61,3.07,3.07,0,0,0,3.19,0l-.74,3.63-13.6-4.26Z" transform="translate(0 0)"/><path class="cls-15" d="M214.9,87.32c-1.32,3.17-5.18,13.59-7.64,19.9,0,0-17.87,5.73-25.52,7.65l2.65,2.81s21.8-3.34,26.54-5.55,9.34-17.61,10.14-21.64C222.23,84.66,216.31,83.9,214.9,87.32Z" transform="translate(0 0)"/><path class="cls-10" d="M183.6,115.32l-1.87-.44s-3.83-.35-5.06-.53-2.7,1.23-4.37,1.76a15.37,15.37,0,0,0-3.3,1.57h1.34l2.73.44,2.46-.44a23.88,23.88,0,0,1,4.63,0,19.94,19.94,0,0,0,4.23,0Z" transform="translate(0 0)"/><path class="cls-20" d="M146.17,52,151,63.28l-1.24.54-4.86-11.26a.27.27,0,0,1,.13-.33h0l.79-.33A.26.26,0,0,1,146.17,52Z" transform="translate(0 0)"/><path class="cls-20" d="M146.14,54.78l.81-.35-1.36-3.15a.44.44,0,0,0-.58-.23h0a.44.44,0,0,0-.23.58Z" transform="translate(0 0)"/><path class="cls-16" d="M136.86,65.31s4.76,13.1,6.5,13c1.3,0,10-12,11.42-14s4.12-6.91,4.12-6.91l-3.54-1.1s-6.11,7.36-7.68,8.68-2.22,1.81-2.22,1.81l-1.82-5Z" transform="translate(0 0)"/><path class="cls-20" d="M139.49,51.67c1.92.51,2.58,2.22,3.41,5.74a71,71,0,0,0,2,6.86l-6.31,2.94s-1.14-6.27-1.56-10.23S137.82,51.22,139.49,51.67Z" transform="translate(0 0)"/><path class="cls-15" d="M113.56,186.51v4.64h8.91s-.33-1.68-4.56-2.45l-.62-2.19Z" transform="translate(0 0)"/><path class="cls-15" d="M132.4,186.51v4.64h8.91s-.33-1.68-4.56-2.45l-.62-2.19Z" transform="translate(0 0)"/><path class="cls-15" d="M115.51,93s-1.62,14.75-1.68,30.59-1,62.91-1,62.91h6.4s6.6-45.49,9-55.67,8.64-37.64,8.64-37.64Z" transform="translate(0 0)"/><path class="cls-10" d="M125.34,39.45s-.41,3.22-.75,4.86a13,13,0,0,1-.87,3,37.62,37.62,0,0,1-4,4.5s10.61,5.6,13.73,5.6,2-6.26,2-6.26-3.4-2.69-3.91-4a31.26,31.26,0,0,1-.79-5.29Z" transform="translate(0 0)"/><path class="cls-15" d="M129.42,109.18s1.2,24.14,1.44,28.89,0,48.4,0,48.4,6,.16,6,0,5.66-46,6.39-57.74.3-25.59,1.27-27.21-2.62-8.45-2.62-8.45l-8.49,2.27Z" transform="translate(0 0)"/><path class="cls-21" d="M121.92,48.66,111,53.36s2.16,8.83,2.28,12.34,1.37,31.22,1.37,31.22S118,102.1,134.13,100c6.21-.8,9.27-3.83,9.27-3.83s-1.75-30.51-2.23-34-1.67-10.52-1.67-10.52l-5.26-1.62-2.14,3.2Z" transform="translate(0 0)"/><path class="cls-22" d="M134.91,94.63" transform="translate(0 0)"/><path class="cls-22" d="M132.09,53.25" transform="translate(0 0)"/><polygon class="cls-20" points="122.41 46.76 132.09 53.25 129.43 56.31 121.92 48.66 122.41 46.76"/><polygon class="cls-20" points="132.09 53.25 134.74 55.37 134.24 50.05 133.25 48.66 132.09 53.25"/><path id="_Path_2" data-name=" Path 2" class="cls-23" d="M142.3,72.27,151.61,75a2.17,2.17,0,0,0,2.48-1.1l9.07-19.38a1.44,1.44,0,0,0-.63-1.95,1.61,1.61,0,0,0-.33-.12L153,49.69c-1.68-.17-2.52.16-2.95,1.05L140.94,70C140.51,70.87,140.67,71.5,142.3,72.27Z" transform="translate(0 0)"/><path id="_Path_3" data-name=" Path 3" class="cls-24" d="M142.83,72.46l9.36,2.71a2.18,2.18,0,0,0,2.5-1.1l9.1-19.46a1.46,1.46,0,0,0-.64-2l-.33-.12-9.28-2.73A2.24,2.24,0,0,0,151,50.9l-9.16,19.4a1.52,1.52,0,0,0,.68,2A1.39,1.39,0,0,0,142.83,72.46Z" transform="translate(0 0)"/><path class="cls-10" d="M115.8,67.25s8.66,14.37,9.81,14.87,16.1-9.23,18.9-11.05,5.15-3.6,5.5-3.89a14.58,14.58,0,0,0,1.16-3.2,3.71,3.71,0,0,1-.39-.52l-.38.2.2-1.16-.35-.66-.34.11-.11-1.18-.52-.89s-1.47,1.67-2.38,2.66a13.06,13.06,0,0,1-2,1.73,12.05,12.05,0,0,0,0-1.9,5.53,5.53,0,0,1,.17-1.4l-1.45.87s-1.27,4-1.52,4.34a7.35,7.35,0,0,1-4.37,4.11,99.42,99.42,0,0,1-9.65,3.25c.24,0-5.65-10.74-5.65-10.74Z" transform="translate(0 0)"/><path class="cls-20" d="M110.61,58.8c.82,3.91,6.55,12.45,6.55,12.45l7-5.26s-2.75-5.5-4.29-8.39c-1.7-3.19-3.28-7.06-6.29-5.93S110,55.66,110.61,58.8Z" transform="translate(0 0)"/><path class="cls-10" d="M137.67,31.2c.75.68,2,2,1.89,2.84a30.63,30.63,0,0,1-.66,4.48c-.4,1.32-1.17,4.79-1.74,6.31s-1.21,3.61-1.68,3.8a14.66,14.66,0,0,1-5.35-1.1c-.77-.57-4.87-5.07-4-8.4,0,0-1.07.14-1.73-3.15-.17-.86,3.32-3.3,3.86-4.15,1.32-2.07,6.13-.44,7.5-.33A2.89,2.89,0,0,0,137.67,31.2Z" transform="translate(0 0)"/><path class="cls-13" d="M139.56,34a1.14,1.14,0,0,0-1.32-.92h0a11.76,11.76,0,0,1-4.76-.33,12.06,12.06,0,0,1-3-1.37,7,7,0,0,1-1,2.55,4.82,4.82,0,0,0-1.09,2.1,1.49,1.49,0,0,1-1,.85s-.39-1.85-1.22-2c-1.65-.26-1.45,2-.77,2.69a14.05,14.05,0,0,0,1.39,1.28,8.71,8.71,0,0,1-.53,1.64,7.67,7.67,0,0,1-1.35,1.66s-.43-4.42-1.48-6.45-1-5.75,2-6.53a4.27,4.27,0,0,1,4.66-3.2c4,.17,7.13,1.75,8.88,1.58a5.39,5.39,0,0,0,2.26-.53s.88,2.87-.26,4.39A9.82,9.82,0,0,0,139.56,34Z" transform="translate(0 0)"/><polygon class="cls-6" points="171.41 118.17 167.7 118.17 163.99 94.53 166.81 94.53 171.41 118.17"/><polygon class="cls-7" points="170.34 118.17 155.87 118.17 152.17 94.53 166.63 94.53 170.34 118.17"/><rect class="cls-7" x="155.68" y="117.64" width="15.73" height="1.76"/><rect class="cls-6" x="171.41" y="117.64" width="19.83" height="1.76"/><path class="cls-6" d="M162.4,107.5c.42,1.81.12,3.76-.66,4.37s-1.76-.38-2.17-2.19-.13-3.77.65-4.37S162,105.69,162.4,107.5Z" transform="translate(0 0)"/><rect class="cls-25" x="29.8" y="119.58" width="178.07" height="3.42"/><polygon class="cls-25" points="48.8 191.27 50.52 191.27 64.52 123.01 60.97 123.01 48.8 191.27"/><polygon class="cls-25" points="180.93 191.27 179.21 191.27 165.21 123.01 168.75 123.01 180.93 191.27"/><rect class="cls-21" x="164.48" y="27.67" width="24.05" height="23.81"/><rect class="cls-3" x="168.08" y="31.29" width="8.42" height="17.01"/><rect class="cls-26" x="164.48" y="23.12" width="24.05" height="4.55"/><circle class="cls-27" cx="182.64" cy="34.07" r="2.99"/><polygon class="cls-3" points="182.4 35.24 181.02 33.46 182.27 33.99 185.16 31.46 182.4 35.24"/><circle class="cls-27" cx="182.64" cy="42.94" r="2.99"/><polygon class="cls-3" points="182.4 44.12 181.02 42.34 182.27 42.86 185.16 40.34 182.4 44.12"/></svg>