<svg id="header-teamwork" xmlns="http://www.w3.org/2000/svg" xmlns:xlink="http://www.w3.org/1999/xlink" width="948.804" height="910.811" viewBox="0 0 948.804 910.811">
  <defs>
    <linearGradient id="linear-gradient" x1="-37.562" y1="30.248" x2="-36.47" y2="30.238" gradientUnits="objectBoundingBox">
      <stop offset="0" stop-color="#eef4fb"/>
      <stop offset="0.31" stop-color="#e3edf8"/>
      <stop offset="1" stop-color="#cfe1f3"/>
    </linearGradient>
    <clipPath id="clip-path">
      <path id="Path_291" data-name="Path 291" d="M360.6,291.424,404.473,301.9l51.873.237,53.691-13.517,96.2,179.1-13.062,54.053s-303.678,21.863-311.774,14.985S235.3,493.033,229.94,478.667,360.6,291.424,360.6,291.424Z" transform="translate(-229.786 -288.619)" fill="none"/>
    </clipPath>
  </defs>
  <g id="Layer_1" data-name="Layer 1" transform="translate(0 0)">
    <rect id="Rectangle_1878" data-name="Rectangle 1878" width="655.778" height="387.37" transform="translate(278.963 8.187)" fill="#d5dbda"/>
    <rect id="Rectangle_1879" data-name="Rectangle 1879" width="619.374" height="372.216" transform="translate(297.165 15.764)" fill="#fff"/>
    <rect id="Rectangle_1880" data-name="Rectangle 1880" width="524.32" height="24.86" transform="translate(342.579 32.986)" fill="#efefef"/>
    <rect id="Rectangle_1881" data-name="Rectangle 1881" width="28.519" height="71.596" transform="translate(361.626 269.516)" fill="#ffd04d"/>
    <rect id="Rectangle_1882" data-name="Rectangle 1882" width="28.519" height="134.449" transform="translate(425.889 206.663)" fill="#00bfd8"/>
    <rect id="Rectangle_1883" data-name="Rectangle 1883" width="28.519" height="120.546" transform="translate(490.154 220.566)" fill="#ffd04d"/>
    <rect id="Rectangle_1884" data-name="Rectangle 1884" width="28.519" height="188.608" transform="translate(554.418 152.506)" fill="#00bfd8"/>
    <g id="Group_1650" data-name="Group 1650" transform="translate(425.889 206.663)" opacity="0.15">
      <rect id="Rectangle_1885" data-name="Rectangle 1885" width="13.089" height="134.449" opacity="0.26"/>
    </g>
    <g id="Group_1651" data-name="Group 1651" transform="translate(361.626 269.516)" opacity="0.15">
      <rect id="Rectangle_1886" data-name="Rectangle 1886" width="13.089" height="71.596" opacity="0.26"/>
    </g>
    <g id="Group_1652" data-name="Group 1652" transform="translate(554.418 152.506)" opacity="0.62">
      <rect id="Rectangle_1887" data-name="Rectangle 1887" width="13.089" height="188.608" opacity="0.26"/>
    </g>
    <g id="Group_1653" data-name="Group 1653" transform="translate(490.154 220.566)" opacity="0.15">
      <rect id="Rectangle_1888" data-name="Rectangle 1888" width="13.089" height="120.546" opacity="0.26"/>
    </g>
    <path id="Path_142" data-name="Path 142" d="M403.9,310.393H148.663V38.613h3.893V306.5H403.9Z" transform="translate(194.129 50.428)" fill="#d5dbda"/>
    <path id="Path_143" data-name="Path 143" d="M161.5,172.545l-2.6-2.9,66.768-59.954,61.844,13.435,66.966-74.552,2.9,2.6L288.9,127.415l-62.108-13.492Z" transform="translate(207.503 63.441)" fill="#d5dbda"/>
    <path id="Path_144" data-name="Path 144" d="M257.948,68.43,239.065,50.323,263.443,43.8Z" transform="translate(312.18 57.204)" fill="#d5dbda"/>
    <rect id="Rectangle_1889" data-name="Rectangle 1889" width="23.933" height="23.933" transform="translate(622.197 252.473)" fill="#00bfd8"/>
    <rect id="Rectangle_1890" data-name="Rectangle 1890" width="23.933" height="23.933" transform="translate(622.197 294.406)" fill="#ffd04d"/>
    <rect id="Rectangle_1891" data-name="Rectangle 1891" width="75.865" height="13.601" transform="translate(652.724 304.739)" fill="#efefef"/>
    <rect id="Rectangle_1892" data-name="Rectangle 1892" width="75.865" height="13.601" transform="translate(652.724 262.805)" fill="#efefef"/>
    <rect id="Rectangle_1893" data-name="Rectangle 1893" width="23.933" height="23.933" transform="translate(762.949 252.473)" fill="#00bfd8"/>
    <rect id="Rectangle_1894" data-name="Rectangle 1894" width="23.933" height="23.933" transform="translate(762.949 294.406)" fill="#ffd04d"/>
    <rect id="Rectangle_1895" data-name="Rectangle 1895" width="75.865" height="13.601" transform="translate(793.475 304.739)" fill="#efefef"/>
    <rect id="Rectangle_1896" data-name="Rectangle 1896" width="75.865" height="13.601" transform="translate(793.475 262.805)" fill="#efefef"/>
    <rect id="Rectangle_1897" data-name="Rectangle 1897" width="224.274" height="5.109" transform="translate(642.627 105.465)" fill="#efefef"/>
    <rect id="Rectangle_1898" data-name="Rectangle 1898" width="241.879" height="5.109" transform="translate(625.019 117.837)" fill="#efefef"/>
    <rect id="Rectangle_1899" data-name="Rectangle 1899" width="241.879" height="5.109" transform="translate(625.019 130.21)" fill="#efefef"/>
    <rect id="Rectangle_1900" data-name="Rectangle 1900" width="241.879" height="5.109" transform="translate(625.019 142.581)" fill="#efefef"/>
    <rect id="Rectangle_1901" data-name="Rectangle 1901" width="241.879" height="5.109" transform="translate(625.019 154.954)" fill="#efefef"/>
    <rect id="Rectangle_1902" data-name="Rectangle 1902" width="241.879" height="5.109" transform="translate(625.019 167.326)" fill="#efefef"/>
    <rect id="Rectangle_1903" data-name="Rectangle 1903" width="241.879" height="5.109" transform="translate(625.019 179.699)" fill="#efefef"/>
    <rect id="Rectangle_1904" data-name="Rectangle 1904" width="241.879" height="5.109" transform="translate(625.019 192.071)" fill="#efefef"/>
    <rect id="Rectangle_1905" data-name="Rectangle 1905" width="207.366" height="5.109" transform="translate(659.534 204.442)" fill="#efefef"/>
    <path id="Path_145" data-name="Path 145" d="M800.042,6.867a5.05,5.05,0,0,1-5.05,5.05h-673.8a5.048,5.048,0,0,1-5.048-5.05h0a5.048,5.048,0,0,1,5.048-5.054h673.8a5.05,5.05,0,0,1,5.05,5.05h0Z" transform="translate(148.761 -1.813)" fill="#66341b"/>
    <path id="Path_146" data-name="Path 146" d="M800.042,177.575a5.049,5.049,0,0,1-5.05,5.05h-673.8a5.048,5.048,0,0,1-5.048-5.05h0a5.048,5.048,0,0,1,5.048-5.05h673.8a5.05,5.05,0,0,1,5.05,5.05Z" transform="translate(148.761 221.112)" fill="#66341b"/>
    <path id="Path_147" data-name="Path 147" d="M79.089,478.165l3.657-195.489h-13L73.4,478.165a2.923,2.923,0,1,0,5.691,0Z" transform="translate(88.173 364.952)" fill="#723e24"/>
    <path id="Path_148" data-name="Path 148" d="M25.16,462.392l75.527-180.351-12.09-4.8L19.868,460.292a3.347,3.347,0,0,0,1.321,4.387,3.347,3.347,0,0,0,3.97-2.287Z" transform="translate(22.587 357.858)" fill="#723e24"/>
    <path id="Path_149" data-name="Path 149" d="M165.928,462.392,90.4,282.041l12.09-4.8,68.731,183.047a2.923,2.923,0,1,1-5.293,2.1Z" transform="translate(115.149 357.858)" fill="#723e24"/>
    <g id="Group_1654" data-name="Group 1654" transform="translate(45.787 635.1)" opacity="0.3">
      <path id="Path_150" data-name="Path 150" d="M84.415,282.836l7.69,3.052L21.115,464.531a4.148,4.148,0,0,0,1.96-2.141L98.6,282.041l-12.09-4.8Z" transform="translate(-21.115 -277.243)"/>
      <path id="Path_151" data-name="Path 151" d="M69.835,287.821h9.69L75.9,481.716a2.135,2.135,0,0,0,.342.045,3.346,3.346,0,0,0,2.848-3.6l3.657-195.49h-13Z" transform="translate(42.386 -270.148)"/>
      <path id="Path_152" data-name="Path 152" d="M171.22,460.291,102.489,277.244l-12.09,4.8,1.388,3.317,7.48-2.969,68.335,182a2.576,2.576,0,0,0,2.293.3,3.346,3.346,0,0,0,1.325-4.394Z" transform="translate(69.36 -277.241)"/>
    </g>
    <path id="Path_153" data-name="Path 153" d="M231.094,412.216C217.9,422.948,198.36,432.825,148.721,433.8c-65.3,1.287-99.484-6.12-118.037-39.8C-.3,337.761,38.472,156.064,99.632,196.315,150.758,229.962,161,337.37,167.756,352.222S263.1,386.174,231.094,412.216Z" transform="translate(22.923 244.648)" fill="#e8f6f7"/>
    <path id="Path_154" data-name="Path 154" d="M160.04,414.505c-65.3,1.287-99.482-6.12-118.037-39.8-21.149-38.388-9.8-135.221,18.99-180.032C24.149,228.824,6.948,345.533,30.685,388.615c18.554,33.676,52.737,41.087,118.037,39.8,49.64-.978,69.184-10.855,82.373-21.587,4.491-3.654,6.606-7.165,6.908-10.561C224.769,405.63,204.454,413.63,160.04,414.505Z" transform="translate(22.922 250.035)" fill="#d0e0e2"/>
    <path id="Path_155" data-name="Path 155" d="M92.941,115.694c4.462-12.873,8.581-26.4,15.579-19.569,7.362,7.193,6.772,6.324,4.1,16.3S89.187,126.522,92.941,115.694Z" transform="translate(117.877 118.95)" fill="#ffe1bd"/>
    <path id="Path_156" data-name="Path 156" d="M96.331,104.954c2.218-6.127,5.859-13.126,9.6-16.019s-1.929,7.247-3.269,11.993S94.467,110.108,96.331,104.954Z" transform="translate(122.478 111.289)" fill="#ffe1bd"/>
    <path id="Path_157" data-name="Path 157" d="M147.515,155.313c5.245-19.682,7.866-45.406,7.866-45.406l-9.826-6.615s-20,41.112-30.81,72.322L59,161.3l-6.795-1.385,18.139,36.245s53.689,7.817,56.988,5.971S142.174,175.35,147.515,155.313Z" transform="translate(65.273 130.703)" fill="#f4f4f4"/>
    <path id="Path_158" data-name="Path 158" d="M127.332,170.06c-3.3,1.846-56.988-5.971-56.988-5.971L52.205,127.848,59,129.233c5.008,2.114,13.122,10.225,19.71,18.842,4.757,6.221,7.378,8.435,14.565,11.131,10.993,4.123,22.675,7.047,27.065,7.36,7.42.494,8.145.857,9.729-1.32A4.753,4.753,0,0,1,127.332,170.06Z" transform="translate(65.273 162.771)" fill="#eaeaea"/>
    <path id="Path_159" data-name="Path 159" d="M39.568,239.245a49.09,49.09,0,0,1,2.2,28.317c-4.17,18.769.576,20.028.576,20.028s25.438,16.146,46.595,22.745c15.162,4.718,28.086,3.92,27.726-12.82l-.012-.23c-.027-1.016-.051-1.988-.075-2.936-.715-37.625,7.13-39.539,9.065-81.67,2-43.221-9.553-67.329-21-77.785-11.462-10.432-27.105-10.82-56.531-3.864-22.1,5.208-29.386,11.074-29.207,27.43a128.281,128.281,0,0,0,2.378,20.134C24.937,199.178,33.651,223.889,39.568,239.245Z" transform="translate(21.788 160.806)" fill="#f4f4f4"/>
    <path id="Path_160" data-name="Path 160" d="M54.532,135.163s22.929,75.161,18.342,111.165L64.427,261.7l-9.235-16.759s7.51-71.983-6.866-108.505Z" transform="translate(60.207 172.323)" fill="#3a3a3a"/>
    <path id="Path_161" data-name="Path 161" d="M39.571,222.9a49.09,49.09,0,0,1,2.2,28.317c-4.17,18.769.576,20.028.576,20.028s25.438,16.146,46.595,22.745l19.769-1.875,7.911-6.218.031-4.959c-.027-1.016-.051-1.988-.075-2.936a146.46,146.46,0,0,1-29.853-.778,123.9,123.9,0,0,1-29.272-7.333,11.408,11.408,0,0,1-7.2-12.679,163.9,163.9,0,0,0,2.738-26.245c-.06-8.284-3.9-22.285-7.032-32.39a65.3,65.3,0,0,1-2.635-23.944,213.867,213.867,0,0,0-.022-27.29l-15.673-8.489L18.9,142.11a128.282,128.282,0,0,0,2.385,20.142C24.94,182.836,33.654,207.547,39.571,222.9Z" transform="translate(21.785 177.148)" fill="#e2e2e2"/>
    <path id="Path_162" data-name="Path 162" d="M31.373,217.717c-1.811.3-6.441-7.83-6.441-7.83l1.94-2.578a8.642,8.642,0,0,1,4.37-3.063l.315-.1a3.732,3.732,0,0,1,4.191,1.437c1.33,1.97,3.381,4.218,5.766,4.132h.042a.537.537,0,0,0,.252.042C43.919,209.8,33.184,217.422,31.373,217.717Z" transform="translate(29.658 262.183)" fill="#f4d5b5"/>
    <path id="Path_163" data-name="Path 163" d="M66.135,100.29s1.963,5.484-1,9.843L53,93.713l8.462-.078Z" transform="translate(66.308 118.094)" fill="#632f00"/>
    <path id="Path_164" data-name="Path 164" d="M30.128,127.592c.536,21.181,18.807,33.456,18.807,33.456l-1.221,19.278,12.325,7.989L68.5,193.79l4.854-10.143.666-12.428a6.406,6.406,0,0,1,5.087-5.908,23.318,23.318,0,0,0,12.019-7.265,8.062,8.062,0,0,0,.767-.949l.028-.016c8.01-10.913,11.046-52.705-16.377-64.571C47.228,80.226,29.576,106.382,30.128,127.592Z" transform="translate(36.427 112.511)" fill="#ffe1bd"/>
    <path id="Path_165" data-name="Path 165" d="M43.922,138.391l-.83,11.562,8.457,5.475L56.4,145.286l.666-12.428a6.406,6.406,0,0,1,5.087-5.908,23.318,23.318,0,0,0,12.019-7.265,8.064,8.064,0,0,0,.767-.949A45.555,45.555,0,0,1,57.7,124.074a15.534,15.534,0,0,0-13.774,14.318Z" transform="translate(53.372 150.872)" fill="#e8c5a0"/>
    <path id="Path_166" data-name="Path 166" d="M62.771,128.029c-1.072.439-2.09-1.218-2.09-1.218s-5.945-13.352-7.992-15.4c-3.655-3.7-12.28-3.361-12.961,8.089-.536,8.868,9.94,27.775,13.156,33.329a2.111,2.111,0,0,1-.536,2.687,2.636,2.636,0,0,1-1.169.439h-.149a2.043,2.043,0,0,1-1.364-.487c-6.772-5.945-36.594-34.547-12.913-61.445,0,0,18.807,1.218,21.684,10.281A189.413,189.413,0,0,1,63.363,125.7S63.892,127.535,62.771,128.029Z" transform="translate(33.355 118.603)" fill="#8c4200"/>
    <path id="Path_167" data-name="Path 167" d="M94.07,115.294s-16.459-12.837-41.455,2.8l-20.469-5.224s-.861-.279-.407-3.345,2.715-33.159,38.569-26.395C90.922,87.022,103.548,101.308,94.07,115.294Z" transform="translate(38.373 103.089)" fill="#8c4200"/>
    <path id="Path_168" data-name="Path 168" d="M59.181,134.412l-.119.985a19.563,19.563,0,0,1-1.467,5.411h0l-6.206,1.27-5.406-4.03,6.2-7.209.963.245a13.717,13.717,0,0,1,5.948,3.242Z" transform="translate(57.145 166.676)" fill="#606060"/>
    <path id="Path_169" data-name="Path 169" d="M41.176,124.914a19.7,19.7,0,0,0-5.941,6.12,78.315,78.315,0,0,1,7.613,3.984c3.238,1.976,18.794,12.965,18.794,12.965l4.575-9.395S49.965,127.377,41.176,124.914Z" transform="translate(43.113 158.939)" fill="#e2e2e2"/>
    <path id="Path_170" data-name="Path 170" d="M48.67,138.052s5.444,1.861,7.115,5.927c0,0,2.784-5.335-.773-14.829a24.578,24.578,0,0,0-5.282-3.832Z" transform="translate(60.656 159.467)" fill="#e2e2e2"/>
    <path id="Path_171" data-name="Path 171" d="M29.907,204.283a32.366,32.366,0,0,0,3.75,4.1c.857.472,1-.531.679-1.239S30.038,203.322,29.907,204.283Z" transform="translate(36.154 262.345)" fill="#e5bb98"/>
    <path id="Path_172" data-name="Path 172" d="M51.178,155.953h-.149a2.043,2.043,0,0,1-1.364-.487c-6.772-5.945-36.594-34.547-12.913-61.445a27.719,27.719,0,0,0-.682,8.575S20.966,127.009,51.178,155.953Z" transform="translate(33.352 118.599)" fill="#632f00"/>
    <ellipse id="Ellipse_151" data-name="Ellipse 151" cx="98.282" cy="7.477" rx="98.282" ry="7.477" transform="translate(0.915 840.175)" fill="#d8d8d8"/>
    <path id="Path_173" data-name="Path 173" d="M36.268,360.391c1.293,4.963.8,6.739,1.309,9.975.634,4.012,4.32,5.472,6.456,8.766,2.352,3.629,6.047,9.45-8.383,9.742-15.447.309-24.6-.758-21.979-9.492s3.135-12.578,2.952-15.424.007-5.814,1.752-7.523S33.991,351.656,36.268,360.391Z" transform="translate(14.372 458.731)" fill="#8c4200"/>
    <path id="Path_174" data-name="Path 174" d="M29.358,289.387S4.973,250.469,39.589,196.271c0,0,26.978,12.077,48.581,13.534,17.016,1.148,25.65-.613,25.65-.613s1.433,52.107,1.493,80.193H29.358Z" transform="translate(24.545 252.121)" fill="#3a3a3a"/>
    <path id="Path_175" data-name="Path 175" d="M54.878,299.943c6.671-28.13-21.015-33.085-29.756-12.732C12.757,316,13.741,442.432,14.4,460.8c.085,2.4,1.343,1.954,2.687,1.467,3.939-1.421,7.241-1.985,8.807-1.651a53.14,53.14,0,0,1,9.093,3.781C37.59,439.379,48.424,327.184,54.878,299.943Z" transform="translate(15.459 354.659)" fill="#3a3a3a"/>
    <path id="Path_176" data-name="Path 176" d="M73.709,268.453c2.923-34.946-10.413-62.094-31.3-50.547-8.793,4.856-12.011,14.573-13.191,23.721S21.563,345.855,19.3,363.036c-5.111,38.733,24.363,28.295,27.56,17.563C54.923,353.5,72.116,287.494,73.709,268.453Z" transform="translate(21.522 276.85)" fill="#3a3a3a"/>
    <path id="Path_177" data-name="Path 177" d="M85.428,296.044c1.094-26.224-20.839-24.7-29.69-4.329-19.119,44.021.139,137.746,4.064,181.954,4.285-7.116,12.408-9.526,14.316-9.375a6.818,6.818,0,0,1,4.776,2.687C78.267,412.749,84.255,324.084,85.428,296.044Z" transform="translate(59.014 356.743)" fill="#3a3a3a"/>
    <path id="Path_178" data-name="Path 178" d="M64.218,378.843c3.269,10.707,31.432,23.1,28.49-15.877-1.3-17.286-4.776-112.747-5.453-121.95s-2.209-22.652-6.657-24.33c-22.24-8.395-43.806,19.055-37.954,53.609C46.551,293.394,57.435,356.635,64.218,378.843Z" transform="translate(51.518 276.789)" fill="#3a3a3a"/>
    <path id="Path_179" data-name="Path 179" d="M72.564,361.651c1.167,2.27,6.753,7.518,14.5,10.978s24.139,5.075,15.028,8.121-19.736,1.194-25.121.337a108.284,108.284,0,0,0-16.943-1.022c-8.372-.057-8.436-.572-7.314-10.013C54.269,357.061,68.8,354.31,72.564,361.651Z" transform="translate(65.264 462.862)" fill="#8c4200"/>
    <path id="Path_180" data-name="Path 180" d="M32.082,200.815l4.3,6.056A11.217,11.217,0,0,1,47.723,212.8c3.638,7.123-9.231,16.043-12.889,12.753s-11.614-18.5-11.614-18.5Z" transform="translate(27.422 258.055)" fill="#ffe1bd"/>
    <path id="Path_181" data-name="Path 181" d="M28.614,272.258a307.349,307.349,0,0,1,23.815,28.211l2.218-1.493,8.492-5.777S45.72,256.719,40.77,238.908a63.324,63.324,0,0,0-10.253-20.7c.331-.318.64-.633.97-.973,12.626-13.444,22.467-30.78,29.955-41.4a42.666,42.666,0,0,0,7.165-17.112,38.377,38.377,0,0,0,.121-12.622c-1.069-6.66-3.869-12.8-10.313-14.377a11.443,11.443,0,0,0-7.08.533A12.837,12.837,0,0,0,45.27,137.4c-9.843,15.924-37.722,59.028-42.106,69.66A22.349,22.349,0,0,0,1.671,212.5a18.6,18.6,0,0,0-.3,1.866C-.32,231.807,17,260.541,28.614,272.258Z" transform="translate(-1.258 167.402)" fill="#f4f4f4"/>
    <path id="Path_182" data-name="Path 182" d="M28.614,271.823a307.346,307.346,0,0,1,23.815,28.211l2.218-1.493s-12.782-17.809-18.822-25.023c-9.254-11.046-15.764-19.664-21.285-29.81s-8.122-29.7-5.2-35.2c2.9-5.488,19.209-29.74,22.706-34.4,3.5-4.639,32.117-33.194,23.9-41.151a5.776,5.776,0,0,0-4.615-1.139,12.837,12.837,0,0,0-6.066,5.139c-9.843,15.924-37.722,59.028-42.106,69.66a22.349,22.349,0,0,0-1.493,5.444,18.6,18.6,0,0,0-.3,1.866C-.32,231.372,17,260.106,28.614,271.823Z" transform="translate(-1.258 167.837)" fill="#eaeaea"/>
    <path id="Path_183" data-name="Path 183" d="M46.977,203.586s-3.933,13.873-21.411,21.848c-15.076,6.88,24.141,10.814,25.015,9.284s8.411-26.848,8.411-26.848Z" transform="translate(25.986 261.673)" fill="#3a3a3a"/>
    <path id="Path_201" data-name="Path 201" d="M106.59,265.925l2.861-55.262H82.4l2.86,55.262Z" transform="translate(107.601 275.1)" fill="#fafeff"/>
    <path id="Path_202" data-name="Path 202" d="M86.116,261.859l-2.511-50.071h21.5l-2.512,50.071Z" transform="translate(109.174 276.57)" fill="#b4eff9"/>
    <path id="Path_203" data-name="Path 203" d="M83.963,217.1l1.687,37.825h16.474l1.688-37.825Z" transform="translate(109.64 283.505)" fill="#75d9ef"/>
    <g id="Group_1658" data-name="Group 1658" transform="translate(194.494 489.952)" opacity="0.5">
      <path id="Path_204" data-name="Path 204" d="M88.14,257.368h4.5l-2.657-39.451c-.545-4.768-5-5.027-4.3.408Z" transform="translate(-85.606 -214.295)" fill="#fff"/>
    </g>
    <rect id="Rectangle_1906" data-name="Rectangle 1906" width="125.329" height="7.848" transform="translate(127.27 548.583)" fill="#282c2d"/>
    <rect id="Rectangle_1907" data-name="Rectangle 1907" width="113.526" height="6.296" transform="translate(128.485 540.784)" fill="#d6d6d6"/>
    <rect id="Rectangle_1908" data-name="Rectangle 1908" width="125.329" height="3.005" transform="translate(122.584 545.58)" fill="#525252"/>
    <rect id="Rectangle_1909" data-name="Rectangle 1909" width="108.863" height="0.649" transform="translate(130.816 543.199)" fill="#a5a5af"/>
    <rect id="Rectangle_1910" data-name="Rectangle 1910" width="108.863" height="0.649" transform="translate(130.816 544.607)" fill="#a5a5af"/>
    <rect id="Rectangle_1911" data-name="Rectangle 1911" width="108.863" height="0.649" transform="translate(130.816 541.728)" fill="#a5a5af"/>
    <rect id="Rectangle_1912" data-name="Rectangle 1912" width="51.758" height="12.843" transform="translate(693.039 542.113)" fill="#f1f2f2"/>
    <rect id="Rectangle_1913" data-name="Rectangle 1913" width="16.334" height="12.843" transform="translate(728.464 542.113)" fill="#a7a9ac"/>
    <rect id="Rectangle_1914" data-name="Rectangle 1914" width="51.758" height="1.475" transform="translate(689.844 542.113)" fill="#a7a9ac"/>
    <rect id="Rectangle_1915" data-name="Rectangle 1915" width="51.758" height="1.475" transform="translate(689.844 553.481)" fill="#a7a9ac"/>
    <rect id="Rectangle_1916" data-name="Rectangle 1916" width="67.541" height="12.843" transform="translate(729.869 542.113)" fill="#383838"/>
    <rect id="Rectangle_1917" data-name="Rectangle 1917" width="36.134" height="6.871" transform="translate(737.129 545.099)" fill="#a7a9ac"/>
    <rect id="Rectangle_1918" data-name="Rectangle 1918" width="32.241" height="6.13" transform="translate(739.076 545.468)" fill="#e6e7e8"/>
    <ellipse id="Ellipse_152" data-name="Ellipse 152" cx="4.221" cy="3.441" rx="4.221" ry="3.441" transform="translate(783.764 545.099)" fill="#a7a9ac"/>
    <rect id="Rectangle_1919" data-name="Rectangle 1919" width="29.519" height="1.299" transform="translate(696.119 544.45)" fill="#a7a9ac"/>
    <rect id="Rectangle_1920" data-name="Rectangle 1920" width="29.519" height="1.297" transform="translate(696.119 549.451)" fill="#a7a9ac"/>
    <rect id="Rectangle_1921" data-name="Rectangle 1921" width="29.519" height="1.297" transform="translate(696.119 551.321)" fill="#a7a9ac"/>
    <rect id="Rectangle_1922" data-name="Rectangle 1922" width="18.392" height="1.297" transform="translate(705.373 547.322)" fill="#a7a9ac"/>
    <rect id="Rectangle_1923" data-name="Rectangle 1923" width="7.777" height="1.297" transform="translate(696.119 547.322)" fill="#a7a9ac"/>
    <rect id="Rectangle_1924" data-name="Rectangle 1924" width="51.758" height="12.843" transform="translate(683.294 529.574)" fill="#f1f2f2"/>
    <rect id="Rectangle_1925" data-name="Rectangle 1925" width="16.334" height="12.843" transform="translate(718.717 529.574)" fill="#a7a9ac"/>
    <rect id="Rectangle_1926" data-name="Rectangle 1926" width="51.758" height="1.476" transform="translate(680.098 529.574)" fill="#a7a9ac"/>
    <rect id="Rectangle_1927" data-name="Rectangle 1927" width="51.758" height="1.475" transform="translate(680.098 540.942)" fill="#a7a9ac"/>
    <rect id="Rectangle_1928" data-name="Rectangle 1928" width="67.541" height="12.843" transform="translate(720.124 529.574)" fill="#58595b"/>
    <rect id="Rectangle_1929" data-name="Rectangle 1929" width="36.134" height="6.871" transform="translate(727.384 532.561)" fill="#a7a9ac"/>
    <rect id="Rectangle_1930" data-name="Rectangle 1930" width="32.241" height="6.13" transform="translate(729.33 532.931)" fill="#e6e7e8"/>
    <ellipse id="Ellipse_153" data-name="Ellipse 153" cx="4.221" cy="3.441" rx="4.221" ry="3.441" transform="translate(774.019 532.563)" fill="#a7a9ac"/>
    <rect id="Rectangle_1931" data-name="Rectangle 1931" width="29.519" height="1.297" transform="translate(686.375 531.912)" fill="#a7a9ac"/>
    <rect id="Rectangle_1932" data-name="Rectangle 1932" width="29.519" height="1.297" transform="translate(686.375 536.912)" fill="#a7a9ac"/>
    <rect id="Rectangle_1933" data-name="Rectangle 1933" width="29.519" height="1.299" transform="translate(686.375 538.784)" fill="#a7a9ac"/>
    <rect id="Rectangle_1934" data-name="Rectangle 1934" width="18.392" height="1.297" transform="translate(695.626 534.785)" fill="#a7a9ac"/>
    <rect id="Rectangle_1935" data-name="Rectangle 1935" width="7.777" height="1.297" transform="translate(686.375 534.785)" fill="#a7a9ac"/>
    <g id="کارتیمی" transform="translate(-226.98 72.332)">
      <path id="Path_299" data-name="Path 299" d="M107.679,128.582l-1.867-5.322-1.827,5.322A18.665,18.665,0,0,1,93.7,139.066h0a18.467,18.467,0,0,1,10.286,10.445l1.827,5.322,1.867-5.322a18.546,18.546,0,0,1,10.286-10.484h0a18.348,18.348,0,0,1-10.286-10.445Z" transform="translate(373.641 399.426)" fill="#fff"/>
      <path id="Path_301" data-name="Path 301" d="M83.764,74.885,82.532,71.39l-1.191,3.495a12.351,12.351,0,0,1-6.791,6.87h0a12.351,12.351,0,0,1,6.791,6.91l1.191,3.495,1.231-3.495a11.914,11.914,0,0,1,6.791-6.91h0A11.914,11.914,0,0,1,83.764,74.885Z" transform="translate(316.74 245.302)" fill="#fff"/>
      <path id="Path_350" data-name="Path 350" d="M149.99,52.391l19.182,44.8-4.925,2.145-19.3-44.717a1.072,1.072,0,0,1,.516-1.311h0l3.137-1.311a1.033,1.033,0,0,1,1.39.4Z" transform="translate(525.728 187.297)" fill="#364469"/>
      <path id="Path_351" data-name="Path 351" d="M150.29,65.972l3.217-1.39-5.4-12.51a1.747,1.747,0,0,0-2.3-.913h0a1.747,1.747,0,0,0-.913,2.3Z" transform="translate(525.309 184.756)" fill="#364469"/>
      <path id="Path_352" data-name="Path 352" d="M136.86,92.082s18.9,52.025,25.814,51.627c5.163,0,39.713-47.656,45.353-55.6s16.362-27.442,16.362-27.442L210.33,56.3s-24.265,29.229-30.5,34.471-8.816,7.188-8.816,7.188L163.786,78.1Z" transform="translate(501.884 200.465)" fill="#f7d4b2"/>
      <path id="Path_353" data-name="Path 353" d="M147.049,51.871c7.625,2.025,10.246,8.816,13.542,22.8a281.964,281.964,0,0,0,7.943,27.243l-25.059,11.676s-4.527-24.9-6.2-40.627S140.417,50.084,147.049,51.871Z" transform="translate(502.14 186.507)" fill="#364469"/>
      <path id="Path_354" data-name="Path 354" d="M113.56,186.51v18.427h35.385s-1.311-6.672-18.109-9.73l-2.462-8.7Z" transform="translate(432.652 587.363)" fill="#133a50"/>
      <path id="Path_355" data-name="Path 355" d="M132.4,186.51v18.427h35.385s-1.311-6.672-18.109-9.73l-2.462-8.7Z" transform="translate(488.632 587.363)" fill="#133a50"/>
      <path id="Path_356" data-name="Path 356" d="M123.473,93s-6.434,58.577-6.672,121.483-3.971,249.837-3.971,249.837h25.417s26.211-180.656,35.742-221.085S208.3,93.755,208.3,93.755Z" transform="translate(430.483 309.513)" fill="#133a50"/>
      <path id="Path_357" data-name="Path 357" d="M142.039,39.45s-1.628,12.788-2.978,19.3a51.626,51.626,0,0,1-3.455,11.914A149.4,149.4,0,0,1,119.72,88.536s42.136,22.24,54.527,22.24,7.943-24.861,7.943-24.861-13.5-10.683-15.528-15.885a124.137,124.137,0,0,1-3.137-21.008Z" transform="translate(450.956 150.398)" fill="#ffe0bc"/>
      <path id="Path_358" data-name="Path 358" d="M129.42,157.048s4.766,95.868,5.719,114.732,0,192.213,0,192.213,23.828.635,23.828,0,22.478-182.682,25.377-229.305,1.191-101.627,5.044-108.06-10.4-33.558-10.4-33.558l-33.717,9.015Z" transform="translate(479.778 309.721)" fill="#133a50"/>
      <path id="Path_359" data-name="Path 359" d="M154.367,48.66,111,67.325s8.578,35.067,9.055,49.006S125.5,240.317,125.5,240.317s13.3,20.572,77.362,12.232c24.662-3.177,36.814-15.21,36.814-15.21s-6.95-121.166-8.856-135.026-6.632-41.779-6.632-41.779L203.294,54.1l-8.5,12.708Z" transform="translate(425.045 177.764)" fill="#e9f2f4"/>
      <path id="Path_360" data-name="Path 360" d="M134.91,94.63" transform="translate(496.09 314.356)" fill="none" stroke="#aebfde" stroke-miterlimit="10" stroke-width="0.25"/>
      <path id="Path_361" data-name="Path 361" d="M132.09,53.25" transform="translate(487.711 191.402)" fill="none" stroke="#aebfde" stroke-miterlimit="10" stroke-width="0.25"/>
      <path id="Path_362" data-name="Path 362" d="M123.866,46.76l38.443,25.774L151.745,84.686,121.92,54.306Z" transform="translate(457.492 172.118)" fill="#364469"/>
      <path id="Path_363" data-name="Path 363" d="M132.09,66.888l10.524,8.419L140.628,54.18,136.7,48.66Z" transform="translate(487.711 177.764)" fill="#364469"/>
      <path id="_Path_2" data-name=" Path 2" d="M146.947,139.491l36.973,10.842a8.618,8.618,0,0,0,9.849-4.369L229.789,69a5.719,5.719,0,0,0-2.5-7.744,6.4,6.4,0,0,0-1.311-.477L189.44,49.818c-6.672-.675-10.008.635-11.715,4.17l-36.179,76.488C139.838,133.931,140.474,136.433,146.947,139.491Z" transform="translate(513.402 180.696)" fill="#97a3cc"/>
      <path id="_Path_3" data-name=" Path 3" d="M146.2,140.115l37.172,10.762a8.657,8.657,0,0,0,9.928-4.368l36.139-77.282a5.8,5.8,0,0,0-2.542-7.943l-1.311-.477L188.737,49.966a8.9,8.9,0,0,0-10.087,4.527l-36.378,77.044a6.036,6.036,0,0,0,2.7,7.943A5.522,5.522,0,0,0,146.2,140.115Z" transform="translate(516.25 180.827)" fill="url(#linear-gradient)"/>
      <path id="Path_364" data-name="Path 364" d="M115.8,89.149s34.392,57.068,38.959,59.054,63.939-36.656,75.058-43.883,20.452-14.3,21.842-15.449a57.9,57.9,0,0,0,4.607-12.708,14.73,14.73,0,0,1-1.549-2.065l-1.509.794L254,70.285l-1.39-2.621-1.35.437-.437-4.686L248.76,59.88s-5.838,6.632-9.452,10.564a51.862,51.862,0,0,1-7.943,6.87,47.861,47.861,0,0,0,0-7.546,21.96,21.96,0,0,1,.675-5.56l-5.758,3.455s-5.044,15.885-6.036,17.236a29.189,29.189,0,0,1-17.355,16.322,394.813,394.813,0,0,1-38.323,12.907c.953,0-22.438-42.652-22.438-42.652Z" transform="translate(439.308 211.102)" fill="#ffe0bc"/>
      <path id="Path_365" data-name="Path 365" d="M111.259,80.582c3.257,15.528,26.012,49.443,26.012,49.443l27.8-20.889s-10.921-21.842-17.037-33.32c-6.751-12.669-13.026-28.038-24.98-23.55S108.836,68.112,111.259,80.582Z" transform="translate(423.238 186.111)" fill="#364469"/>
      <path id="Path_366" data-name="Path 366" d="M177.118,32.429c2.978,2.7,7.943,7.943,7.506,11.279A121.648,121.648,0,0,1,182,61.5c-1.589,5.242-4.647,19.023-6.91,25.059s-4.805,14.337-6.672,15.091a58.22,58.22,0,0,1-21.247-4.368c-3.058-2.264-19.34-20.135-15.885-33.359,0,0-4.249.556-6.87-12.51C123.743,48,137.6,38.306,139.747,34.93c5.242-8.221,24.344-1.747,29.785-1.311a11.477,11.477,0,0,0,7.585-1.191Z" transform="translate(464.844 124.655)" fill="#ffe0bc"/>
      <path id="Path_367" data-name="Path 367" d="M189.33,57.955a4.527,4.527,0,0,0-5.242-3.654h0a46.7,46.7,0,0,1-18.9-1.311,47.894,47.894,0,0,1-11.914-5.441A27.8,27.8,0,0,1,149.3,57.677a19.142,19.142,0,0,0-4.329,8.34A5.917,5.917,0,0,1,141,69.392s-1.549-7.347-4.845-7.943c-6.553-1.033-5.758,7.943-3.058,10.683a55.805,55.805,0,0,0,5.52,5.083,34.586,34.586,0,0,1-2.1,6.513,30.457,30.457,0,0,1-5.361,6.592s-1.708-17.553-5.878-25.615-3.971-22.835,7.943-25.933a16.958,16.958,0,0,1,18.506-12.708c15.885.675,28.316,6.95,35.266,6.275a21.405,21.405,0,0,0,8.975-2.1s3.495,11.4-1.032,17.434a39,39,0,0,0-5.6,10.286Z" transform="translate(460.137 110.249)" fill="#8b4200"/>
    </g>
    <rect id="Rectangle_1936" data-name="Rectangle 1936" width="51.758" height="12.843" transform="translate(693.039 517.038)" fill="#f1f2f2"/>
    <rect id="Rectangle_1937" data-name="Rectangle 1937" width="16.334" height="12.843" transform="translate(728.464 517.038)" fill="#a7a9ac"/>
    <rect id="Rectangle_1938" data-name="Rectangle 1938" width="51.758" height="1.475" transform="translate(689.844 517.038)" fill="#a7a9ac"/>
    <rect id="Rectangle_1939" data-name="Rectangle 1939" width="51.758" height="1.475" transform="translate(689.844 528.406)" fill="#a7a9ac"/>
    <rect id="Rectangle_1940" data-name="Rectangle 1940" width="67.541" height="12.843" transform="translate(729.869 517.038)" fill="#594a42"/>
    <rect id="Rectangle_1941" data-name="Rectangle 1941" width="36.134" height="6.871" transform="translate(737.129 520.024)" fill="#a7a9ac"/>
    <rect id="Rectangle_1942" data-name="Rectangle 1942" width="32.241" height="6.13" transform="translate(739.076 520.395)" fill="#e6e7e8"/>
    <ellipse id="Ellipse_154" data-name="Ellipse 154" cx="4.221" cy="3.442" rx="4.221" ry="3.442" transform="translate(783.764 520.023)" fill="#a7a9ac"/>
    <rect id="Rectangle_1943" data-name="Rectangle 1943" width="29.519" height="1.297" transform="translate(696.119 519.377)" fill="#a7a9ac"/>
    <rect id="Rectangle_1944" data-name="Rectangle 1944" width="29.519" height="1.299" transform="translate(696.119 524.375)" fill="#a7a9ac"/>
    <rect id="Rectangle_1945" data-name="Rectangle 1945" width="29.519" height="1.299" transform="translate(696.119 526.246)" fill="#a7a9ac"/>
    <rect id="Rectangle_1946" data-name="Rectangle 1946" width="18.392" height="1.297" transform="translate(705.373 522.247)" fill="#a7a9ac"/>
    <rect id="Rectangle_1947" data-name="Rectangle 1947" width="7.777" height="1.297" transform="translate(696.119 522.247)" fill="#a7a9ac"/>
    <path id="Path_205" data-name="Path 205" d="M361.459,264.6l2.861-42.512H337.27l2.86,42.512Z" transform="translate(440.422 290.014)" fill="#fafeff"/>
    <path id="Path_206" data-name="Path 206" d="M340.986,260.531l-2.512-37.321h21.5l-2.512,37.321Z" transform="translate(441.993 291.484)" fill="#b4eff9"/>
    <path id="Path_207" data-name="Path 207" d="M338.831,228.521l1.688,25.074h16.474l1.688-25.074Z" transform="translate(442.46 298.42)" fill="#75d9ef"/>
    <g id="Group_1659" data-name="Group 1659" transform="translate(782.182 516.286)" opacity="0.5">
      <path id="Path_208" data-name="Path 208" d="M343.009,256.038h4.5l-2.657-26.7c-.545-4.768-5-5.027-4.3.409Z" transform="translate(-340.474 -225.715)" fill="#fff"/>
    </g>
    <path id="Path_209" data-name="Path 209" d="M112.1,223.672a25.944,25.944,0,0,0,16.3,21.033.134.134,0,0,0,.1-.246c-8.6-4.048-14.968-11.128-16.171-20.788-.018-.149-.246-.149-.228,0h0Z" transform="translate(143.489 287.755)" fill="#81553a"/>
    <path id="Path_210" data-name="Path 210" d="M122.185,217.509a31.5,31.5,0,0,1-5.857,34.15.141.141,0,0,0,.2.2,30.932,30.932,0,0,0,5.836-34.453c-.054-.122-.231-.016-.179.1h0Z" transform="translate(148.952 279.648)" fill="#81553a"/>
    <path id="Path_211" data-name="Path 211" d="M137.523,219.884c4.627,5.883,2.03,12.661-.9,18.658-2.584,5.293-7.844,7.781-12.97,10.013a.19.19,0,0,0,.149.346c6.575-2.334,11.507-5.992,14.222-12.482,2.424-5.791,3.963-11.452-.281-16.752-.127-.158-.343.066-.221.221h0Z" transform="translate(158.452 282.602)" fill="#81553a"/>
    <path id="Path_212" data-name="Path 212" d="M128.492,230.627a11.955,11.955,0,0,0,11.452-4.684.149.149,0,0,0-.225-.173,13.293,13.293,0,0,1-11.195,4.659.1.1,0,0,0-.027.2h0Z" transform="translate(164.804 290.607)" fill="#81553a"/>
    <path id="Path_213" data-name="Path 213" d="M128.328,218.351c-.719,6.344-2.457,17.263-8.875,20.391a.149.149,0,0,0,.115.273c6.774-2.515,8.4-14.628,9-20.664.015-.149-.221-.149-.237,0h0Z" transform="translate(152.989 280.808)" fill="#81553a"/>
    <path id="Path_214" data-name="Path 214" d="M107.04,222.229a14.368,14.368,0,0,0,14.85,12.48.1.1,0,1,0,0-.194,14.712,14.712,0,0,1-14.641-12.343c-.024-.137-.228-.078-.208.057h0Z" transform="translate(136.879 285.842)" fill="#81553a"/>
    <path id="Path_215" data-name="Path 215" d="M165.857,229.6H112.2s-4.351,10.478-4.351,13.068,5.927,7.89,12.308,7.89H157.9c6.381,0,12.308-5.3,12.308-7.89S165.857,229.6,165.857,229.6Z" transform="translate(137.935 295.645)" fill="#ffd04d"/>
    <path id="Path_216" data-name="Path 216" d="M153.2,239.571H110.953l1.478-2.7h39.294Z" transform="translate(144.886 309.329)" fill="#efaf11"/>
    <path id="Path_217" data-name="Path 217" d="M124.16,242.669c0-2.588,4.35-13.068,4.35-13.068H112.2s-4.351,10.478-4.351,13.068,5.927,7.89,12.308,7.89h16.31C130.081,250.559,124.16,245.257,124.16,242.669Z" transform="translate(137.935 295.645)" fill="#efaf11"/>
    <path id="Path_218" data-name="Path 218" d="M112.43,236.875l-1.476,2.7h16.31l1.476-2.7Z" transform="translate(144.887 309.329)" fill="#efaf11" opacity="0.55"/>
    <path id="Path_219" data-name="Path 219" d="M121.3,222.038c1.22-.954,6.027-2.658,9.238-.631a13.819,13.819,0,0,1,6.675,10.829,34.057,34.057,0,0,1-8.869.848C118.3,232.3,119.042,223.807,121.3,222.038Z" transform="translate(153.652 283.704)" fill="#709e3e"/>
    <path id="Path_220" data-name="Path 220" d="M131.593,219.547c.81-.7,4.069-2.024,6.347-.73a9.53,9.53,0,0,1,4.945,7.25,23.493,23.493,0,0,1-6.084.867C129.854,226.711,130.09,220.839,131.593,219.547Z" transform="translate(167.815 280.851)" fill="#709e3e"/>
    <path id="Path_221" data-name="Path 221" d="M133.985,217.558a4.512,4.512,0,0,0-4.369.322,6.6,6.6,0,0,0-2.388,5.562,15.993,15.993,0,0,0,4.211-.2C136.084,222.2,135.165,218.241,133.985,217.558Z" transform="translate(163.22 279.375)" fill="#709e3e"/>
    <path id="Path_222" data-name="Path 222" d="M113.51,219.809a6.057,6.057,0,0,0-3.4-.516,4.609,4.609,0,0,0-3.458,6.162,4.138,4.138,0,0,0,3.558,2.09c2.742.345,6.027-1.8,8.759-2.687A11.683,11.683,0,0,0,113.51,219.809Z" transform="translate(135.978 282.109)" fill="#709e3e"/>
    <path id="Path_223" data-name="Path 223" d="M113.678,223.148a3.678,3.678,0,0,0-2,3.035,3.332,3.332,0,0,0,3.357,2.687c1.572.075,7.184-1.46,9.577-.231C120.453,220.753,116.245,221.524,113.678,223.148Z" transform="translate(142.936 285.837)" fill="#709e3e"/>
    <path id="Path_224" data-name="Path 224" d="M134.192,223.916a3.245,3.245,0,0,0-1.978,2.281,2.606,2.606,0,0,0,2,2.775c1.137.3,5.506-.187,7.048,1.206C141.266,224.2,136.348,222.913,134.192,223.916Z" transform="translate(169.738 287.819)" fill="#709e3e"/>
    <path id="Path_225" data-name="Path 225" d="M122.538,227.24c1.279-.369,6.12-.79,8.121,1.8,3.657,4.729.513,8.807.107,10.249a30.771,30.771,0,0,1-7.478-2.1C115.347,233.442,118.187,227.906,122.538,227.24Z" transform="translate(151.544 292.202)" fill="#709e3e"/>
    <path id="Path_226" data-name="Path 226" d="M117.435,227.552c-1.166-.391-5.109-.334-6.742,2.17a11.916,11.916,0,0,0-1.3,10.356,23.785,23.785,0,0,0,6.548-1.893C122.807,234.677,119.6,228.279,117.435,227.552Z" transform="translate(139.121 292.735)" fill="#709e3e"/>
    <path id="Path_227" data-name="Path 227" d="M121.789,217.3a3.742,3.742,0,0,1,2.809,2.09,3.037,3.037,0,0,1-1.618,3.635c-1.228.615-6.335,1.16-7.762,3.118C115.406,217.455,119.085,216.7,121.789,217.3Z" transform="translate(147.558 279.374)" fill="#709e3e"/>
    <g id="Group_1660" data-name="Group 1660" transform="translate(242.349 497.036)" opacity="0.62">
      <path id="Path_228" data-name="Path 228" d="M106.4,220.994a25.48,25.48,0,0,1,12.4,2.158c.066.028.122-.066.057-.1A24.046,24.046,0,0,0,106.4,220.9c-.058,0-.06.1,0,.092h0Z" transform="translate(-106.359 -212.892)" fill="#93bc6c"/>
      <path id="Path_229" data-name="Path 229" d="M107.049,220.882a12.02,12.02,0,0,1,9.484.97.055.055,0,1,0,.055-.1,11,11,0,0,0-9.563-.958.043.043,0,0,0,.022.082h0Z" transform="translate(-105.522 -213.768)" fill="#93bc6c"/>
      <path id="Path_230" data-name="Path 230" d="M106.717,221.162c1.343,2.963,6.2,2.557,8.759,1.882a.084.084,0,1,0-.045-.161c-2.487.615-7.293,1.084-8.628-1.772-.028-.06-.113-.007-.088.051h0Z" transform="translate(-105.9 -212.512)" fill="#93bc6c"/>
      <path id="Path_231" data-name="Path 231" d="M112.234,223.542a8.6,8.6,0,0,1,10.919,3.715.046.046,0,1,0,.081-.046,8.474,8.474,0,0,0-11.034-3.753.046.046,0,0,0,.036.085h0Z" transform="translate(-98.766 -210.424)" fill="#93bc6c"/>
      <path id="Path_232" data-name="Path 232" d="M112.456,223.344a34.32,34.32,0,0,1,9.793,2.72c.033.015.063-.033.028-.049a28.471,28.471,0,0,0-9.823-2.764.047.047,0,0,0,0,.094h0Z" transform="translate(-98.459 -209.685)" fill="#93bc6c"/>
      <path id="Path_233" data-name="Path 233" d="M111.969,223.724a17.972,17.972,0,0,0,10.449,2.373c.088-.008.09-.149,0-.139a19.542,19.542,0,0,1-10.416-2.3.036.036,0,0,0-.036.061h0Z" transform="translate(-99.055 -209.148)" fill="#93bc6c"/>
      <path id="Path_234" data-name="Path 234" d="M115.407,224.935a19.528,19.528,0,0,1,7.487-7.016.08.08,0,1,0-.081-.137,17.042,17.042,0,0,0-7.492,7.1.049.049,0,0,0,.084.049h0Z" transform="translate(-94.665 -216.839)" fill="#93bc6c"/>
      <path id="Path_235" data-name="Path 235" d="M116.77,223.208a11.129,11.129,0,0,0,5.836-5.181.064.064,0,0,0-.11-.064,12.181,12.181,0,0,1-5.748,5.166c-.049.021-.028.1.022.081h0Z" transform="translate(-92.831 -216.624)" fill="#93bc6c"/>
      <path id="Path_236" data-name="Path 236" d="M115.451,223.254a7.683,7.683,0,0,1,7.015-5.672.07.07,0,0,0,0-.139,7.562,7.562,0,0,0-7.123,5.788.053.053,0,0,0,.1.028h0Z" transform="translate(-94.63 -217.267)" fill="#93bc6c"/>
      <path id="Path_237" data-name="Path 237" d="M127.511,222.94a14.873,14.873,0,0,1,5.542-5.182.08.08,0,1,0-.081-.137,12.362,12.362,0,0,0-5.545,5.271.049.049,0,0,0,.084.049Z" transform="translate(-78.857 -217.051)" fill="#93bc6c"/>
      <path id="Path_238" data-name="Path 238" d="M128.511,221.661a8.123,8.123,0,0,0,4.329-3.838.064.064,0,0,0-.11-.064,9.182,9.182,0,0,1-4.242,3.821c-.049.021-.028.1.022.081h0Z" transform="translate(-77.501 -216.89)" fill="#93bc6c"/>
      <path id="Path_239" data-name="Path 239" d="M127.543,221.694a5.7,5.7,0,0,1,5.184-4.188.07.07,0,0,0,0-.139,5.584,5.584,0,0,0-5.286,4.3.053.053,0,0,0,.1.028h0Z" transform="translate(-78.832 -217.367)" fill="#93bc6c"/>
      <path id="Path_240" data-name="Path 240" d="M109.264,238.867a35.76,35.76,0,0,1,9.01-11.046.058.058,0,0,0-.069-.089,29.885,29.885,0,0,0-9.023,11.09c-.027.055.055.1.084.049h0Z" transform="translate(-102.681 -203.838)" fill="#93bc6c"/>
      <path id="Path_241" data-name="Path 241" d="M109.156,239.388a10.449,10.449,0,0,1,8.311-11.808.063.063,0,0,0-.033-.121,10.422,10.422,0,0,0-8.392,11.961c.01.076.125.043.115-.031h0Z" transform="translate(-103.043 -204.191)" fill="#93bc6c"/>
      <path id="Path_242" data-name="Path 242" d="M109.456,237.912a10.074,10.074,0,0,0,9.235-9.478c0-.069-.1-.064-.1,0a10.226,10.226,0,0,1-9.132,9.365c-.072.007-.073.122,0,.115h0Z" transform="translate(-102.387 -202.981)" fill="#93bc6c"/>
      <path id="Path_243" data-name="Path 243" d="M119.38,227.571a14.792,14.792,0,0,1,8.377,10.2.049.049,0,1,0,.094-.025,14.373,14.373,0,0,0-8.426-10.247c-.049-.022-.094.051-.043.075h0Z" transform="translate(-89.384 -204.145)" fill="#93bc6c"/>
      <path id="Path_244" data-name="Path 244" d="M119.638,227.681c4.627.688,9.8,2.309,9.6,7.983a.063.063,0,0,0,.125,0c.448-5.732-5.075-7.433-9.7-8.075-.061-.009-.088.084-.025.094h0Z" transform="translate(-89.072 -204.02)" fill="#93bc6c"/>
      <path id="Path_245" data-name="Path 245" d="M119.584,227.987c-.946,4.342,3.387,6.775,6.841,8a.046.046,0,0,0,.036-.085c-3.215-1.493-7.705-3.491-6.777-7.884.013-.064-.085-.093-.1-.027Z" transform="translate(-89.263 -203.548)" fill="#93bc6c"/>
      <path id="Path_246" data-name="Path 246" d="M120.368,221.866c.1,6.3,9.268,8.28,14.18,8.275a.045.045,0,1,0,0-.089c-4.906-.176-13.867-1.911-14.129-8.186a.025.025,0,0,0-.051,0Z" transform="translate(-88.067 -211.524)" fill="#93bc6c"/>
      <path id="Path_247" data-name="Path 247" d="M120.9,222.218a64.852,64.852,0,0,0,13.917,7.518c.066.025.094-.081.03-.106a68.137,68.137,0,0,1-13.913-7.463c-.034-.024-.067.033-.033.057h0Z" transform="translate(-87.386 -211.106)" fill="#93bc6c"/>
      <path id="Path_248" data-name="Path 248" d="M120.959,221.8a23.827,23.827,0,0,1,13.989,8.239c.064.075.167-.033.107-.107a22.837,22.837,0,0,0-14.073-8.21c-.054-.009-.078.073-.022.082h0Z" transform="translate(-87.334 -211.682)" fill="#93bc6c"/>
      <path id="Path_249" data-name="Path 249" d="M121.229,221.2c6.971-.4,12.935,2.229,13.7,9.875a.052.052,0,0,0,.1,0,10.09,10.09,0,0,0-3.732-7.741c-2.914-2.355-6.5-2.478-10.081-2.225-.058,0-.06.1,0,.093h0Z" transform="translate(-87.009 -212.598)" fill="#93bc6c"/>
      <path id="Path_250" data-name="Path 250" d="M130.8,219.466c.5,4.508,7.21,5.374,10.761,5.075a.045.045,0,1,0,0-.09c-3.56.115-10.05-.5-10.711-4.99a.025.025,0,0,0-.049,0h0Z" transform="translate(-74.441 -214.657)" fill="#93bc6c"/>
      <path id="Path_251" data-name="Path 251" d="M131.211,219.7a47.639,47.639,0,0,0,10.525,4.548.055.055,0,0,0,.03-.106,51.084,51.084,0,0,1-10.52-4.5.033.033,0,0,0-.033.057h0Z" transform="translate(-73.924 -214.404)" fill="#93bc6c"/>
      <path id="Path_252" data-name="Path 252" d="M131.24,219.407a17.6,17.6,0,0,1,10.6,5.045.076.076,0,0,0,.108-.108,16.694,16.694,0,0,0-10.7-5.023c-.055,0-.054.081,0,.087h0Z" transform="translate(-73.913 -214.814)" fill="#93bc6c"/>
      <path id="Path_253" data-name="Path 253" d="M131.4,219.1c4.945-.63,9.429.814,10.483,6.209a.052.052,0,0,0,.1-.013,7,7,0,0,0-3.121-5.278,10.269,10.269,0,0,0-7.475-1.009.046.046,0,0,0,.012.091Z" transform="translate(-73.724 -215.608)" fill="#93bc6c"/>
      <path id="Path_254" data-name="Path 254" d="M132.247,224.868a3.485,3.485,0,0,0,2.166,1.623c.914.236,1.884.119,2.814.282a10.749,10.749,0,0,1,3.844,1.54.009.009,0,0,0,.009-.015,10.363,10.363,0,0,0-4.421-1.687c-1.658-.2-3.4-.127-4.354-1.775a.032.032,0,1,0-.055.033h0Z" transform="translate(-72.558 -207.633)" fill="#93bc6c"/>
      <path id="Path_255" data-name="Path 255" d="M132.527,224.527a10.283,10.283,0,0,1,7.98,3.96.022.022,0,0,0,.034-.027,9.907,9.907,0,0,0-8.016-4.008.037.037,0,1,0,0,.075h0Z" transform="translate(-72.239 -208.114)" fill="#93bc6c"/>
      <path id="Path_256" data-name="Path 256" d="M132.937,224.482a5.327,5.327,0,0,1,6.953,3.809.042.042,0,0,0,.081-.022,5.332,5.332,0,0,0-7.054-3.866c-.049.016-.028.1.022.079h0Z" transform="translate(-71.718 -208.609)" fill="#93bc6c"/>
    </g>
    <path id="Path_257" data-name="Path 257" d="M115.864,224.247c-1.109-.954-5.481-2.658-8.4-.63a15.95,15.95,0,0,0-6.586,11.262,31.666,31.666,0,0,0,8.581.415C118.588,234.5,117.921,226.016,115.864,224.247Z" transform="translate(128.829 286.589)" fill="#93bc6c"/>
    <path id="Path_258" data-name="Path 258" d="M135.217,219.695c-.931-.645-4.439-1.609-6.527.188a10.986,10.986,0,0,0-3.811,8.836,21.912,21.912,0,0,0,6.286,0C138.144,227.386,136.947,220.893,135.217,219.695Z" transform="translate(160.158 281.607)" fill="#93bc6c"/>
    <path id="Path_259" data-name="Path 259" d="M120.937,215.03a3.246,3.246,0,0,0-1.979,2.282,2.609,2.609,0,0,0,2,2.775c1.137.3,5.506-.187,7.05,1.206C128.009,215.314,123.093,214.027,120.937,215.03Z" transform="translate(152.427 276.216)" fill="#93bc6c"/>
    <path id="Path_260" data-name="Path 260" d="M130.284,227.884c1.036-.579,5.178-1.958,7.547-.224,4.318,3.164,2.52,7.227,2.5,8.52a29.533,29.533,0,0,1-7.051-.161C125.435,234.586,126.624,229.367,130.284,227.884Z" transform="translate(163.519 292.006)" fill="#93bc6c"/>
    <path id="Path_261" data-name="Path 261" d="M101.174,233.164a24.843,24.843,0,0,0,4.988-4.048,24.166,24.166,0,0,1,8.222-5.292.066.066,0,0,0-.036-.127c-5.6,1.724-8.372,6.6-13.246,9.345a.071.071,0,1,0,.072.122h0Z" transform="translate(129.078 287.932)" fill="#709e3e"/>
    <path id="Path_262" data-name="Path 262" d="M101.152,233.1a61.258,61.258,0,0,1,4.329-6.327c2.366-2.621,5.162-3.252,8.59-3.135.121,0,.149-.2.03-.216-7.056-1.1-9.835,4.523-13.014,9.635a.04.04,0,0,0,.069.04h0Z" transform="translate(129.1 287.39)" fill="#709e3e"/>
    <path id="Path_263" data-name="Path 263" d="M101.919,232.979c5.294-.267,14.215-1.37,12.741-8.841a.1.1,0,0,0-.2.027c.027,2.315-.354,4.73-2.321,6.218-2.627,1.988-7.08,2.239-10.219,2.454-.09,0-.091.149,0,.14h0Z" transform="translate(130.101 288.42)" fill="#709e3e"/>
    <path id="Path_264" data-name="Path 264" d="M101.4,232.672c2.732-.9,5.636-1.434,8.272-2.608,2.6-1.157,3.7-3.411,5.008-5.806a.071.071,0,0,0-.122-.072c-1.757,2.911-3.147,5.021-6.471,6.259-2.2.819-4.5,1.343-6.717,2.09-.082.028-.048.16.036.131h0Z" transform="translate(129.407 288.528)" fill="#709e3e"/>
    <path id="Path_265" data-name="Path 265" d="M119.668,215.612a14.715,14.715,0,0,1,6.835,3.926.046.046,0,1,0,.066-.066,12.883,12.883,0,0,0-6.881-3.929.036.036,0,0,0-.019.069Z" transform="translate(153.338 277.287)" fill="#709e3e"/>
    <path id="Path_266" data-name="Path 266" d="M119.221,215.948a2.211,2.211,0,0,0,1.691,1.355c1.611.536,3.242,1.045,4.885,1.461a.053.053,0,1,0,.028-.1c-1.045-.381-2.09-.706-3.155-1.027s-2.866-.558-3.311-1.727c-.033-.087-.172-.051-.14.039h0Z" transform="translate(152.777 277.7)" fill="#709e3e"/>
    <path id="Path_267" data-name="Path 267" d="M119.73,215.529a6.4,6.4,0,0,1,7.063,4.076c.024.054.108.015.093-.039a6.2,6.2,0,0,0-7.2-4.179c-.1.018-.055.164.04.149h0Z" transform="translate(153.322 276.905)" fill="#709e3e"/>
    <path id="Path_268" data-name="Path 268" d="M125.225,226.905c3.182-2.13,6.244-4.478,9.3-6.793a.027.027,0,0,0-.027-.046c-3.284,1.979-6.147,4.614-9.305,6.78-.036.025,0,.084.034.058h0Z" transform="translate(160.561 283.19)" fill="#709e3e"/>
    <path id="Path_269" data-name="Path 269" d="M125.571,226.515c3.527-.539,7.535-2.735,8.934-6.192a.048.048,0,0,0-.087-.036,11.868,11.868,0,0,1-8.859,6.187c-.027,0-.015.045.01.04h0Z" transform="translate(161.042 283.455)" fill="#709e3e"/>
    <path id="Path_270" data-name="Path 270" d="M125.191,226.843a13.943,13.943,0,0,1,8.471-6.981.049.049,0,1,0-.025-.094,13.216,13.216,0,0,0-8.548,7.016.06.06,0,0,0,.1.06h0Z" transform="translate(160.439 282.802)" fill="#709e3e"/>
    <path id="Path_271" data-name="Path 271" d="M125.873,226.344a11.3,11.3,0,0,0,6.969-1.743,3.363,3.363,0,0,0,1.512-4.081c-.022-.052-.107-.015-.091.039,1.528,4.671-5.359,5.645-8.39,5.721a.032.032,0,0,0,0,.064Z" transform="translate(161.43 283.754)" fill="#709e3e"/>
    <path id="Path_272" data-name="Path 272" d="M125.069,226.75c1.031-4.142,3.712-7.514,8.374-7.221.093,0,.088-.131,0-.14-4.669-.53-7.544,3.217-8.48,7.333a.055.055,0,0,0,.106.03h0Z" transform="translate(160.282 282.243)" fill="#709e3e"/>
    <path id="Path_273" data-name="Path 273" d="M129.181,227.507a37.046,37.046,0,0,1,8.389,7.533c.036.04.092-.018.06-.06a34.145,34.145,0,0,0-8.414-7.532.034.034,0,0,0-.034.058Z" transform="translate(165.775 292.831)" fill="#709e3e"/>
    <path id="Path_274" data-name="Path 274" d="M129.354,227.4a9.992,9.992,0,0,1,8.223,7.3.05.05,0,0,0,.1-.027,9.735,9.735,0,0,0-8.3-7.338c-.042,0-.06.057-.018.064Z" transform="translate(165.986 292.689)" fill="#709e3e"/>
    <path id="Path_275" data-name="Path 275" d="M129.712,227.341a7.411,7.411,0,0,1,5.681,1.642,6.12,6.12,0,0,1,1.718,4.812.053.053,0,0,0,.106,0,5.91,5.91,0,0,0-1.729-4.908,7.38,7.38,0,0,0-5.775-1.608c-.037,0-.039.064,0,.06h0Z" transform="translate(166.449 292.51)" fill="#709e3e"/>
    <path id="Path_276" data-name="Path 276" d="M129.283,227.5c-2.4,3.424,6.211,7.038,8.42,7.51a.061.061,0,0,0,.033-.117c-2.09-.583-10.552-3.961-8.378-7.35.03-.048-.043-.088-.075-.043Z" transform="translate(165.376 292.88)" fill="#709e3e"/>
    <path id="Path_277" data-name="Path 277" d="M129.336,227.643a2.755,2.755,0,0,0-.309,4.288c1.861,2.141,5.384,2.9,8.08,2.887a.067.067,0,1,0,0-.134,15.348,15.348,0,0,1-4.885-.958c-2.02-.794-6.269-3.744-2.843-6.012a.041.041,0,1,0-.042-.07Z" transform="translate(164.362 293.081)" fill="#709e3e"/>
    <rect id="Rectangle_1948" data-name="Rectangle 1948" width="14.965" height="294.349" transform="translate(154.967 565.583)" fill="#4c2311"/>
    <rect id="Rectangle_1949" data-name="Rectangle 1949" width="14.967" height="294.349" transform="translate(770.817 565.583)" fill="#4c2311"/>
    <rect id="Rectangle_1950" data-name="Rectangle 1950" width="691.537" height="12.985" transform="translate(124.605 557.009)" fill="#4c2311"/>
    <rect id="Rectangle_1951" data-name="Rectangle 1951" width="706.044" height="5.82" transform="translate(117.353 554.414)" fill="#66341b"/>
    <rect id="Rectangle_1952" data-name="Rectangle 1952" width="149.249" height="3.003" transform="translate(240.019 551.41)" fill="#525252"/>
    <path id="Path_278" data-name="Path 278" d="M244.726,239.832s-59-3.493-67.671,2.6c-11.9-5.424-68.974-2.6-68.974-2.6v3.881H244.726Z" transform="translate(138.238 307.702)" fill="#d6d6d6"/>
    <path id="Path_279" data-name="Path 279" d="M244.73,241.8q-8.488-.672-16.989-1.118c-5.666-.3-11.334-.6-17.006-.746s-11.344-.2-17.016,0c-2.836.109-5.66.285-8.465.624a41.483,41.483,0,0,0-4.166.7,12.211,12.211,0,0,0-3.851,1.443l-.149.1-.17-.072a21.516,21.516,0,0,0-4.078-1.194c-1.4-.279-2.827-.476-4.253-.649-2.858-.322-5.736-.5-8.616-.617-5.76-.231-11.534-.212-17.3-.1s-11.538.343-17.3.634q-8.648.392-17.289.994c11.5-1.036,23.033-1.764,34.582-2.061,5.774-.149,11.553-.208,17.333-.012,2.89.1,5.778.257,8.657.564,1.44.164,2.879.355,4.308.63a20.936,20.936,0,0,1,4.224,1.218l-.318.03a12.719,12.719,0,0,1,4.084-1.52,42.283,42.283,0,0,1,4.232-.679c2.836-.324,5.672-.482,8.517-.573,5.684-.166,11.365-.079,17.042.107C222.1,239.882,233.432,240.694,244.73,241.8Z" transform="translate(138.234 308.325)" fill="#a5a5af"/>
    <path id="Path_280" data-name="Path 280" d="M244.5,241q-8.469-.228-16.94-.348-8.468-.166-16.939-.236c-5.647-.037-11.293-.024-16.936.1-2.821.067-5.641.161-8.454.33-1.406.088-2.812.184-4.206.343a20.86,20.86,0,0,0-4.085.746l-.088.03-.09-.018a35.161,35.161,0,0,0-4.212-.448c-1.421-.1-2.848-.149-4.273-.2-2.854-.1-5.711-.14-8.568-.172-5.714-.052-11.431-.033-17.148.015l-34.3.494,17.143-.584,17.151-.343c5.717-.085,11.435-.149,17.157-.127,2.86.012,5.72.039,8.581.116,1.43.04,2.861.085,4.293.172a32.655,32.655,0,0,1,4.311.448l-.178.012a21.233,21.233,0,0,1,4.238-.746c1.414-.149,2.826-.24,4.239-.319,2.826-.149,5.651-.228,8.478-.278,5.651-.09,11.3-.061,16.951,0s11.3.19,16.943.351Q236.032,240.62,244.5,241Z" transform="translate(138.469 309.133)" fill="#a5a5af"/>
    <rect id="Rectangle_1953" data-name="Rectangle 1953" width="149.249" height="3.003" transform="translate(453.878 551.41)" fill="#525252"/>
    <path id="Path_281" data-name="Path 281" d="M337.473,239.832s-59-3.493-67.671,2.6c-11.9-5.424-68.974-2.6-68.974-2.6v3.881H337.473Z" transform="translate(259.352 307.702)" fill="#d6d6d6"/>
    <path id="Path_282" data-name="Path 282" d="M337.477,241.8q-8.488-.672-16.989-1.118c-5.666-.3-11.334-.6-17.006-.746s-11.344-.2-17.016,0c-2.836.109-5.66.285-8.465.624a41.484,41.484,0,0,0-4.166.7,12.215,12.215,0,0,0-3.851,1.443l-.149.1-.17-.072a21.514,21.514,0,0,0-4.076-1.194c-1.4-.279-2.827-.476-4.254-.649-2.857-.322-5.736-.5-8.616-.617-5.76-.231-11.534-.212-17.3-.1s-11.537.343-17.3.634q-8.657.392-17.291.994c11.5-1.036,23.033-1.764,34.582-2.061,5.774-.149,11.553-.208,17.333-.012,2.89.1,5.778.257,8.657.564,1.44.164,2.879.355,4.309.63a20.956,20.956,0,0,1,4.224,1.218l-.318.03a12.709,12.709,0,0,1,4.084-1.52,42.28,42.28,0,0,1,4.232-.679c2.836-.324,5.672-.482,8.516-.573,5.684-.166,11.365-.079,17.042.107C314.847,239.882,326.178,240.694,337.477,241.8Z" transform="translate(259.347 308.325)" fill="#a5a5af"/>
    <path id="Path_283" data-name="Path 283" d="M337.244,241q-8.469-.228-16.94-.348-8.47-.166-16.94-.236c-5.647-.037-11.293-.024-16.936.1-2.821.067-5.641.161-8.454.33-1.406.088-2.812.184-4.206.343a20.859,20.859,0,0,0-4.085.746l-.088.03-.09-.018a35.16,35.16,0,0,0-4.212-.448c-1.421-.1-2.848-.149-4.273-.2-2.852-.1-5.711-.14-8.568-.172-5.714-.052-11.431-.033-17.148.015l-34.3.494,17.149-.591,17.151-.343c5.718-.085,11.435-.149,17.156-.127,2.86.012,5.72.039,8.581.116,1.431.04,2.861.085,4.293.172a32.676,32.676,0,0,1,4.311.448l-.176.012a21.219,21.219,0,0,1,4.238-.746c1.412-.149,2.826-.24,4.238-.319,2.826-.149,5.653-.228,8.478-.278,5.651-.09,11.3-.061,16.951,0s11.3.19,16.942.351Q328.779,240.624,337.244,241Z" transform="translate(259.581 309.129)" fill="#a5a5af"/>
    <path id="Path_284" data-name="Path 284" d="M292.718,354.892l2.482,14.9h11.362l4.888-.837L307.873,345.8Z" transform="translate(382.243 451.567)" fill="#ffe1bd"/>
    <path id="_Path_" data-name="&lt;Path&gt;" d="M339.347,424.161c-1.087.5-2.239.94-3.433,1.358a95.848,95.848,0,0,1-14.724,3.257c-13.583-22.285-48.829-130.837-48.829-130.837-3.241-13.713,17.352,3.845,25.924,3.323a18.183,18.183,0,0,1,7.9,1.149c8.195,3.47,20.215,26.653,20.215,26.653s3.658,8.007,7.484,24.563S339.347,424.161,339.347,424.161Z" transform="translate(352.315 378.032)" fill="#1a1a47"/>
    <path id="_Path_2-2" data-name="&lt;Path&gt;" d="M324.472,419.339c-1.087.5-2.239.94-3.433,1.358-.857-6.606-2.132-17.142-4.014-33.929-4.2-37.628-28.054-80.714-33.616-90.329a18.185,18.185,0,0,1,7.9,1.149c8.195,3.47,20.215,26.653,20.215,26.653s3.658,8.007,7.484,24.563S324.472,419.339,324.472,419.339Z" transform="translate(367.19 382.854)" fill="#3d3d72" opacity="0.54"/>
    <path id="_Path_3-2" data-name="&lt;Path&gt;" d="M311.668,360.454a27.58,27.58,0,0,0,8.683-1.333,20.714,20.714,0,0,0,7.314-4.627s12.059,7.363,12.043,20.585a1.682,1.682,0,0,1-1.1,1.551s-28.916,12.846-38.863,16.359a148.338,148.338,0,0,1-15.958,4.127,1.4,1.4,0,0,1-1.7-.763c-.522-1.344-.782-3.7,2.167-5.962,4.478-3.433,9.384-6.244,12.786-9.092s6.878-10.7,9.632-12.935a18.243,18.243,0,0,0,5-7.911Z" transform="translate(365.035 458.736)" fill="#1a1a47"/>
    <g id="Group_1662" data-name="Group 1662" transform="translate(526.952 661.334)" clip-path="url(#clip-path)">
      <path id="Path_285" data-name="Path 285" d="M326.819,513.423l4.223-225.735H316.022l4.223,225.735c.049,2.29,1.521,4.145,3.284,4.145S326.768,515.713,326.819,513.423Z" transform="translate(-117.174 -289.836)" fill="#723e24"/>
      <path id="Path_286" data-name="Path 286" d="M264.5,495.207l87.214-208.25-13.958-5.541L258.4,492.775c-.8,2.146-.115,4.414,1.526,5.066S263.613,497.317,264.5,495.207Z" transform="translate(-192.861 -298.026)" fill="#723e24"/>
      <path id="Path_287" data-name="Path 287" d="M427.092,495.207,339.88,286.957l13.958-5.541L433.2,492.775c.8,2.146.116,4.414-1.524,5.066S427.983,497.317,427.092,495.207Z" transform="translate(-86.02 -298.026)" fill="#723e24"/>
      <g id="Group_1661" data-name="Group 1661" transform="translate(69.381 -16.61)" opacity="0.3">
        <path id="Path_288" data-name="Path 288" d="M332.97,287.87l8.881,3.526L259.875,497.68a4.787,4.787,0,0,0,2.263-2.472l87.214-208.251-13.958-5.541Z" transform="translate(-259.875 -281.416)"/>
        <path id="Path_289" data-name="Path 289" d="M316.134,293.628h11.195l-4.187,223.887a2.44,2.44,0,0,0,.4.052c1.766,0,3.236-1.855,3.284-4.145l4.223-225.735H316.022Z" transform="translate(-186.554 -273.226)"/>
        <path id="Path_290" data-name="Path 290" d="M433.2,492.778,353.838,281.419,339.88,286.96l1.6,3.83,8.636-3.433L429.03,497.5a2.973,2.973,0,0,0,2.646.337C433.318,497.192,434,494.923,433.2,492.778Z" transform="translate(-155.4 -281.412)"/>
      </g>
    </g>
    <path id="_Path_4" data-name="&lt;Path&gt;" d="M367.2,291.61H229.211L201.9,205.728a6.706,6.706,0,0,1,6.392-8.739H332.2a6.707,6.707,0,0,1,6.392,4.674Z" transform="translate(260.333 253.058)" fill="#fff"/>
    <path id="_Path_5" data-name="&lt;Path&gt;" d="M362.762,290.621H230.638l-27.06-84.3a6.593,6.593,0,0,1,6.33-8.578H328.09a6.638,6.638,0,0,1,6.33,4.587Z" transform="translate(262.543 254.047)" fill="#e1edf9"/>
    <path id="_Path_6" data-name="&lt;Path&gt;" d="M271.5,206.5H211.3a1.624,1.624,0,0,1-1.624-1.624h0a1.624,1.624,0,0,1,1.624-1.624H271.5a1.624,1.624,0,0,1,1.624,1.624h0A1.624,1.624,0,0,1,271.5,206.5Z" transform="translate(270.909 261.232)" fill="#c2e0f2"/>
    <path id="_Path_7" data-name="&lt;Path&gt;" d="M279.467,209.752H212.344a1.624,1.624,0,0,1-1.624-1.624h0a1.624,1.624,0,0,1,1.624-1.624h67.123a1.624,1.624,0,0,1,1.624,1.624h0a1.624,1.624,0,0,1-1.624,1.624Z" transform="translate(272.268 265.483)" fill="#c2e0f2"/>
    <path id="_Path_8" data-name="&lt;Path&gt;" d="M271.865,213.007H213.4a1.624,1.624,0,0,1-1.624-1.624h0a1.624,1.624,0,0,1,1.624-1.624h58.461a1.624,1.624,0,0,1,1.624,1.624h0A1.624,1.624,0,0,1,271.865,213.007Z" transform="translate(273.651 269.734)" fill="#c2e0f2"/>
    <path id="_Path_9" data-name="&lt;Path&gt;" d="M260.772,216.262H214.436a1.624,1.624,0,0,1-1.624-1.624h0a1.624,1.624,0,0,1,1.624-1.624h46.336a1.624,1.624,0,0,1,1.624,1.624h0a1.624,1.624,0,0,1-1.624,1.624Z" transform="translate(275 273.985)" fill="#c2e0f2"/>
    <path id="_Path_10" data-name="&lt;Path&gt;" d="M282.623,219.517H215.5a1.624,1.624,0,0,1-1.624-1.624h0a1.624,1.624,0,0,1,1.624-1.624h67.123a1.624,1.624,0,0,1,1.624,1.624h0a1.623,1.623,0,0,1-1.624,1.624Z" transform="translate(276.39 278.235)" fill="#c2e0f2"/>
    <path id="_Path_11" data-name="&lt;Path&gt;" d="M275,222.774H216.542a1.624,1.624,0,0,1-1.624-1.624h0a1.624,1.624,0,0,1,1.624-1.624H275a1.624,1.624,0,0,1,1.624,1.624h0A1.624,1.624,0,0,1,275,222.774Z" transform="translate(277.751 282.488)" fill="#c2e0f2"/>
    <path id="_Path_12" data-name="&lt;Path&gt;" d="M285.745,229.283H218.618a1.624,1.624,0,0,1-1.624-1.624h0a1.624,1.624,0,0,1,1.624-1.624h67.123a1.624,1.624,0,0,1,1.624,1.624h0a1.624,1.624,0,0,1-1.62,1.624Z" transform="translate(280.461 290.989)" fill="#c2e0f2"/>
    <path id="_Path_13" data-name="&lt;Path&gt;" d="M286.8,232.539H219.679a1.624,1.624,0,0,1-1.624-1.624h0a1.624,1.624,0,0,1,1.624-1.624H286.8a1.624,1.624,0,0,1,1.629,1.628h0a1.624,1.624,0,0,1-1.629,1.62Z" transform="translate(281.847 295.24)" fill="#c2e0f2"/>
    <path id="_Path_14" data-name="&lt;Path&gt;" d="M288.484,268.345H266.809a4.627,4.627,0,0,1-4.417-3.236L244.317,207.9a4.627,4.627,0,0,1,4.417-6.027h21.682a4.627,4.627,0,0,1,4.417,3.236l18.075,57.21a4.627,4.627,0,0,1-4.423,6.027Z" transform="translate(315.858 259.434)" fill="#c2e0f2"/>
    <path id="_Path_15" data-name="&lt;Path&gt;" d="M365.918,245.763H215.856a4.439,4.439,0,0,1-4.438-4.439h0a4.439,4.439,0,0,1,4.438-4.439H365.918a4.439,4.439,0,0,1,4.439,4.439h0A4.439,4.439,0,0,1,365.918,245.763Z" transform="translate(273.181 305.156)" fill="#fff"/>
    <g id="_Group_" data-name="&lt;Group&gt;" transform="translate(673.659 408.637)">
      <path id="_Compound_Path_" data-name="&lt;Compound Path&gt;" d="M302.177,202.648a3.773,3.773,0,0,1-3.284-1.893l-4.991-8.78a3.751,3.751,0,0,1,1.511-5.177l13.9-7.339a3.77,3.77,0,0,1,5.051,1.524l4.742,8.707a3.752,3.752,0,0,1-1.5,5.1L303.952,202.2a3.717,3.717,0,0,1-1.775.451Zm8.88-21.888a1.992,1.992,0,0,0-.937.233l-13.9,7.338a2.021,2.021,0,0,0-.813,2.788h0l4.993,8.78a2.034,2.034,0,0,0,2.726.776l13.644-7.411a2.023,2.023,0,0,0,.809-2.744l-4.741-8.707a2.03,2.03,0,0,0-1.785-1.054Z" transform="translate(-293.41 -179.03)" fill="#1a1a47"/>
    </g>
    <path id="_Path_16" data-name="&lt;Path&gt;" d="M292.547,238.786a26.247,26.247,0,0,1-1.749,2.045s-7.275-5.509-9.3-6.029-6.339,1.091-8.807,1.23-2.666-1.318-2.666-1.318-9.39,3.915-10.9,4.279-2.53-.139-1.594-2.529a10.149,10.149,0,0,1,1.733-2.355l.018-.018c3.2-3.621,9.805-9.4,12.177-10.55,3.032-1.437,7.154-3.533,10.462-2.3s14.083,9.3,14.083,9.3C296.323,233.311,294.176,236.7,292.547,238.786Z" transform="translate(332.93 284.239)" fill="#ffe1bd"/>
    <path id="_Path_17" data-name="&lt;Path&gt;" d="M294.785,225.805l-2.239,7.762a26.247,26.247,0,0,1-1.749,2.045s-7.275-5.509-9.3-6.029-6.339,1.091-8.807,1.23-2.666-1.318-2.666-1.318-9.39,3.915-10.9,4.279-2.53-.139-1.594-2.529a10.148,10.148,0,0,1,1.733-2.355c-.8,1.1-1.679,2.239-1.157,3.639.636,1.709,10.713-3.1,17.992-7.486.113-.069.7-.358.9-.019a1.082,1.082,0,0,1-.4.816c-1.214,1.3-7.314,1.761-6.08,3.708,1.74,2.738,8-2.287,11.432-1.161a35.314,35.314,0,0,1,7.726,4.262S291.649,226.81,294.785,225.805Z" transform="translate(332.929 289.458)" fill="#ffd19f"/>
    <path id="_Path_18" data-name="&lt;Path&gt;" d="M271.276,250.577s35.691,31.216,62.393,34.392,71.744-47.486,71.744-47.486-2.836-26.992-19.487-23.818-38.975,43.3-48.645,45.182-59.96-19.436-59.96-19.436a13.071,13.071,0,0,0-3.111,3.832,33.556,33.556,0,0,0-2.935,7.333Z" transform="translate(351.346 274.496)" fill="#006466"/>
    <path id="_Path_19" data-name="&lt;Path&gt;" d="M362.643,169.342c-9.766-11.18-24.2-12.389-35.347-11.15a36.922,36.922,0,0,0-31.574,25.587,32.866,32.866,0,0,0,.664,21.073c9.095,25.117,18.621,41.14,27.5,45.9,3.388,1.818,9.868.606,16.789-1.826a1.952,1.952,0,0,1,2.376.909l2.921,5.465,25.694-5.557a87.545,87.545,0,0,1-5.059-14.673C370.341,230.359,380.52,189.8,362.643,169.342Z" transform="translate(381.414 201.887)" fill="#ffe1bd"/>
    <path id="_Path_20" data-name="&lt;Path&gt;" d="M315.742,209.512a7.36,7.36,0,0,1,7.463,4.382c2.112,5.027,5.374,12.061,7.938,14.347a2.614,2.614,0,0,0,2.824.027,2.211,2.211,0,0,0,1.29-2.193,59.606,59.606,0,0,0-2.969-10.01,6.741,6.741,0,0,1,5.062-9.334,11.4,11.4,0,0,1,4.179.258c7.6,2.3,2.363,14.216,2.209,20.439-.107,4.385,5.142,14.55,7.463,15.464,7.632,2.994,19.2.29,25.333-7.29s7.463-32.911,4.114-48.063-15.482-23.709-19.486-24.684a14.116,14.116,0,0,0-4.754-.382,4.427,4.427,0,0,1-3.349-1.094c-4.038-3.514-16.1-11.543-35.194-3.3a44.248,44.248,0,0,0-27.39,42.223c.282,6.474,5.366,6,8.89,4.868a5.885,5.885,0,0,1,5.6,1.211A14.26,14.26,0,0,0,315.742,209.512Z" transform="translate(376.39 197.553)" fill="#0b0b3a"/>
    <path id="_Path_21" data-name="&lt;Path&gt;" d="M317.25,209.974s-2.211-2.463-1.372-3.969c1.045-1.869,12.317-10.79,25.478-10.322,2.046.073,4.547.073,7,5.414a38.586,38.586,0,0,1,3.032,8.878H317.25Z" transform="translate(409.341 251.331)" fill="#007d87"/>
    <path id="_Path_22" data-name="&lt;Path&gt;" d="M391.616,421.576c-.8.191-1.663.381-2.564.555-11.172,2.079-29.344,2.321-29.344,2.321-35.824-.64-53.929-34.013-59.749-43.973a37.205,37.205,0,0,1-2.858-5.838c2.045-1.091,26.378-14.212,25.077-59.016-.27-9.284-.139-30.071-4.763-38.143-2.546-4.435-10.081-13.425-14.81-22.9-3.881-7.8-5.889-15.919-1.642-22.121,10.532-15.468,27.144-23.7,27.144-23.7s30.487-12.211,56.454-9.441c16.473,1.731,31.144,9.492,35.059,30.228C429.716,282.953,391.616,421.576,391.616,421.576Z" transform="translate(385.067 255.572)" fill="#007d87"/>
    <path id="_Path_23" data-name="&lt;Path&gt;" d="M332.14,273.96c4.427,44.079-25.581,71.835-32.182,76.582A37.205,37.205,0,0,1,297.1,344.7c2.045-1.091,24.927-20.951,25.077-59.016.039-9.289-.139-30.071-4.763-38.143-2.546-4.435-10.081-13.425-14.81-22.9l2.009-.779,12.229-2.027,6.2,5.059S329.272,245.405,332.14,273.96Z" transform="translate(385.067 285.509)" fill="#00b3b7" opacity="0.18"/>
    <path id="_Path_24" data-name="&lt;Path&gt;" d="M342.087,421.344c-.8.191-1.663.381-2.564.555,2.287-12.04,16.76-87.644,21.472-115.064,9.3-54.132-.381-81.551-5.838-91.374-4.411-7.939-12.9-12.143-20.128-16.37,16.473,1.731,31.144,9.492,35.059,30.228C380.187,282.722,342.087,421.344,342.087,421.344Z" transform="translate(434.596 255.804)" fill="#00b3b7" opacity="0.45"/>
    <path id="_Path_25" data-name="&lt;Path&gt;" d="M270.535,373.771a23.748,23.748,0,0,1-8.52,1.642c-5.26,0-6.789-1.966-6.789-1.966V361.452l17.328-2.23Z" transform="translate(330.387 464.91)" fill="#ffe1bd"/>
    <path id="_Path_26" data-name="&lt;Path&gt;" d="M419.2,316.329c-.1,7.8-2.173,20.236-13.859,23.748-17.434,5.224-30.313,2.258-50.526-1.233-16.933-2.906-61.527-12.505-69.722-15.619a1.418,1.418,0,0,0-1.9,1.609c3.867,18.9,6.959,27.066,9.465,55.425,2.106,23.826-7.048,91.265-7.048,91.265a48.377,48.377,0,0,1-5.771,1.343,23.325,23.325,0,0,1-3.324.3,75.652,75.652,0,0,1-9.678-.815s-18.082-99.32-20.527-139.563,1.4-43.566,19.693-52.094,100.06-5.373,100.06-5.373l.021.021c.23.711,4.829,13.274,18.4,24.647A77.539,77.539,0,0,0,419.2,316.329Z" transform="translate(317.869 354.605)" fill="#3d3d72"/>
    <path id="Path_292" data-name="Path 292" d="M302.741,282a46.094,46.094,0,0,1-3.393-6.932l-.021-.021s-.948-.036-2.587-.088a67.922,67.922,0,0,0,6,7.041Z" transform="translate(384.598 354.874)" fill="#33305b"/>
    <path id="Path_293" data-name="Path 293" d="M392.314,293.168c-1.642,5.9-5.18,11.659-12.538,13.871-17.434,5.224-30.313,2.258-50.526-1.233-16.933-2.906-61.529-12.505-69.723-15.621a1.418,1.418,0,0,0-1.9,1.609c3.867,18.9,6.959,27.066,9.465,55.425,1.642,18.552.942,79.031.551,104.9,1.369-.336,2.352-.628,2.352-.628s9.154-67.439,7.048-91.265c-2.508-28.36-5.6-36.527-9.466-55.424a1.42,1.42,0,0,1,1.9-1.611c8.195,3.115,52.789,12.714,69.722,15.619,20.215,3.491,33.092,6.46,50.526,1.234,11.686-3.512,13.755-15.95,13.859-23.748A87.692,87.692,0,0,1,392.314,293.168Z" transform="translate(333.48 374.634)" fill="#33305b"/>
    <path id="_Path_27" data-name="&lt;Path&gt;" d="M277.9,364.664a27.579,27.579,0,0,0,8.6,1.791,20.72,20.72,0,0,0,8.471-1.791s8.726,11.113,4.09,23.5a1.682,1.682,0,0,1-1.576,1.067H238.965a1.311,1.311,0,0,1-1.327-1.269c-.019-1.442.56-3.739,4.114-4.827,5.4-1.655,10.975-2.57,15.156-4.051s10.183-7.621,13.544-8.754a18.243,18.243,0,0,0,7.447-5.662Z" transform="translate(307.419 472.016)" fill="#1a1a47"/>
    <path id="_Path_28" data-name="&lt;Path&gt;" d="M268.452,246.687s-5.208-1.361-7.911-1.914a28.692,28.692,0,0,0-2.891-.422,15.032,15.032,0,0,0-3.433.107l-27.978,3.872a1.493,1.493,0,0,1-1.663-1.273,3.223,3.223,0,0,1,1.087-2.9l2.734-2.354,8.171-7.042c4.047-3.481,7.253-4.1,12.6-4.37a48.913,48.913,0,0,1,5.769,1.169c5.483,1,6.732,1.642,10.386,2.388a24.211,24.211,0,0,0,3.057.487,2.88,2.88,0,0,0,1.218-.046,16.951,16.951,0,0,1-1.148,12.3Z" transform="translate(290.319 296.681)" fill="#ffe1bd"/>
    <path id="_Path_29" data-name="&lt;Path&gt;" d="M286.785,245.5a.128.128,0,0,1-.167.046c-.716-.3-5.088-2.09-7.463-2.938-.878-.307-1.706-.54-2.423-.721a18.853,18.853,0,0,0-3.815-.458H244.833a1.588,1.588,0,0,1-1.621-1.551,3.218,3.218,0,0,1,1.472-2.658l3.031-1.957c-2.867,2.179-3.33,3.82-1.893,3.993,1.149.139,3.87-.163,10.765-2.082.149-.043.216.2.079.285a1.542,1.542,0,0,0,.957,2.917c1.158-.057,6.083-.369,7.217-.433,4.4-.252,10.82-.667,12.053-.448a21.114,21.114,0,0,1,6.171,2.137c1.206.628,2.354-.746,2.793-2.033a52.572,52.572,0,0,1,2.478-6.162,2.884,2.884,0,0,0,1.214.122,17.058,17.058,0,0,1-2.763,11.94Z" transform="translate(314.698 300.651)" fill="#f4f4f4"/>
    <path id="_Path_30" data-name="&lt;Path&gt;" d="M398.388,210.864c-3.7-2.26-14.9-8.478-29.334,14.031S343.072,264.3,338.02,267.328s-17.464.866-21.942.866-69.986-5.111-69.986-5.111a46.135,46.135,0,0,0-3.681,12.613s60.025,15.739,97.231,15.882,65.5-56.152,66.8-62.938S407.234,216.266,398.388,210.864Z" transform="translate(313.652 267.883)" fill="#007d87"/>
    <g id="_Group_2" data-name="&lt;Group&gt;" transform="translate(675.251 405.585)">
      <path id="_Path_31" data-name="&lt;Path&gt;" d="M294.978,198.443a.866.866,0,0,1-.4-1.642l32.277-16.543c3.653-1.872,11.129-5.7,16.679,2.441a.866.866,0,0,1-1.431.976c-4.329-6.351-9.487-4.424-14.4-1.9l-32.337,16.568a.868.868,0,0,1-.4.1Z" transform="translate(-294.1 -177.706)" fill="#1a1a47"/>
    </g>
    <path id="_Path_32" data-name="&lt;Path&gt;" d="M308.54,182.891l3.9,12.45a3.955,3.955,0,0,0,5.956-.433c2.923-3.364,5.466-15.049.107-17S309.894,178.723,308.54,182.891Z" transform="translate(400.007 227.313)" fill="#ffe1bd"/>
    <path id="Path_294" data-name="Path 294" d="M493.871,323c0-62.873-1.479-107.172-41.3-113.841-54.183-9.068-96.575,37.848-87.9,127.74,4.97,51.507-16.15,69.186-34.138,79.245-11.631,6.5-34.144,5.109-34.144,5.109s-10.428-1.236-17.427-1.9c4.329,2,97.106,47.716,163.308,13.935C500.948,403.35,493.871,359.989,493.871,323Z" transform="translate(361.379 267.502)" fill="#e8f6f7"/>
    <path id="Path_295" data-name="Path 295" d="M493.868,322.794c0-62.873-1.479-107.172-41.3-113.841-1.914-.321-3.812-.563-5.695-.746-43.414,4.3-71.859,50.019-64.285,128.517,4.971,51.507-16.15,69.184-34.138,79.245-11.631,6.5-34.144,5.109-34.144,5.109s-.528-.166-1.493-.457a112.05,112.05,0,0,1-16.419.43s-10.428-1.236-17.427-1.9c4.329,2,97.106,47.716,163.308,13.935C500.944,403.145,493.868,359.784,493.868,322.794Z" transform="translate(361.382 267.707)" fill="#d0e0e2"/>
  </g>
</svg>
